/* XPM */
static char *dummy[]={
"50 50 498 2",
"Qt c None",
"fN c #f0d0c5",
".# c #e7ceca",
"fU c #2e0900",
".g c #300300",
".f c #340700",
".h c #350000",
"fs c #350600",
"ee c #3a1d00",
"ft c #3c0d00",
"fu c #421303",
"bC c #4c1600",
"dM c #511500",
"fv c #512212",
"fr c #542e1b",
".i c #561b00",
".e c #592b1c",
"a0 c #5a2805",
"ex c #5f2100",
"fw c #602d1a",
"ak c #634731",
"eF c #64361f",
"fy c #66321d",
"fx c #663320",
".d c #6c4131",
"fD c #6f311a",
"fA c #6f3824",
"fB c #713a26",
"eV c #732d09",
"eB c #733526",
"fz c #733c28",
"e4 c #742514",
"fI c #743116",
"fE c #74361f",
"ea c #743724",
"d7 c #763809",
"fC c #763823",
"fG c #773a1d",
".j c #773c1c",
"aF c #775240",
"a4 c #784226",
"fa c #792910",
"f. c #792912",
"e5 c #792f14",
"bw c #79361c",
"f# c #7a2a13",
"e6 c #7a3017",
"bx c #7a371d",
"dk c #7a3c0b",
"bv c #7b351c",
"by c #7b3724",
"fH c #7b3a1e",
"fb c #7c2c13",
"br c #7c341b",
"bu c #7c341c",
"bp c #7c391e",
"e9 c #7d2d16",
"fg c #7d3016",
"e7 c #7d331a",
"bs c #7d351c",
"bt c #7d351d",
"e8 c #7e2e17",
"a6 c #7e2f11",
"fF c #7e4125",
"a7 c #7f3415",
"ff c #7f351a",
"be c #7f371f",
"fJ c #7f3d23",
"fc c #803317",
"b# c #803518",
"bc c #803619",
"bq c #80381f",
"bf c #804115",
"a9 c #813416",
"b. c #813418",
"bo c #813e23",
"a8 c #823517",
"bd c #823519",
"fi c #82361f",
"ba c #82371a",
"fK c #824c20",
"fq c #825c49",
"fd c #833416",
"bb c #83361a",
"bm c #84664c",
"fe c #85381a",
"bz c #854522",
"a5 c #863719",
"ef c #863a1a",
"aV c #883d20",
"aK c #893916",
"#0 c #89735e",
"dp c #8a4e2c",
"cA c #8b4e31",
"aL c #8c3c1b",
"aJ c #8d3a1a",
"an c #8d3d18",
"fh c #8d3d24",
"ao c #8e3e1b",
"ar c #8f3b19",
"aM c #8f3f1c",
"dS c #903c18",
"eO c #903d1b",
"eN c #90401f",
".c c #906958",
"#3 c #913915",
"eo c #913d19",
"dT c #913d1b",
"eP c #913e1c",
"eh c #91411e",
"aH c #924420",
"dR c #933a1a",
"ap c #933f1b",
"aq c #933f1d",
"eM c #934020",
"eg c #943f22",
"ep c #94401c",
"aN c #944423",
"#4 c #953d19",
"dU c #953f1e",
"aI c #954220",
"ei c #954520",
"#5 c #963e1a",
"as c #964220",
"aT c #964527",
"aQ c #974628",
"eH c #974e2b",
"ay c #984422",
"aS c #984527",
"aO c #984729",
"ek c #984825",
"fV c #987863",
"#2 c #99340a",
"am c #993c13",
"aP c #99482a",
"el c #994926",
"eS c #994a29",
"eQ c #994b27",
"#6 c #9a421e",
"#9 c #9a4621",
"en c #9a4622",
"at c #9a4624",
"aU c #9a4729",
"a. c #9a4822",
"em c #9a4a27",
"eL c #9a4a29",
"eI c #9a4b2a",
"d1 c #9b431d",
"dV c #9b4722",
"ev c #9b4723",
"ad c #9b4924",
"aR c #9b4a2c",
"ej c #9b4b26",
"eK c #9b4b2a",
"#8 c #9c4420",
"et c #9c4728",
"eq c #9c4824",
"eu c #9c4826",
"av c #9c4927",
"aA c #9c502e",
"af c #9c522b",
"dZ c #9d451f",
"d2 c #9d461b",
"dW c #9d4924",
"ax c #9d4927",
"eJ c #9d4d2c",
"az c #9e4525",
"dX c #9e4924",
"eU c #9e492a",
"es c #9e4a28",
"ew c #9e4b23",
"au c #9e4b29",
"eR c #9e502c",
"aw c #9f4b29",
"ab c #9f4c24",
"eT c #9f4c2c",
"ac c #9f4d27",
"fT c #9f7970",
"#7 c #a04824",
"dY c #a14923",
"cO c #a14d1e",
"d0 c #a24a24",
"#D c #a2592c",
"er c #a34e2f",
"eG c #a44b2b",
"d5 c #a44c24",
"cN c #a45021",
"cU c #a45222",
".x c #a4896e",
"cP c #a55323",
"#b c #a74c1d",
"cM c #a75324",
"dH c #a86a3b",
"a# c #aa5832",
"#V c #ab6239",
".k c #ab6e51",
"cR c #ac5a2a",
"fp c #ac8673",
"cH c #ad4d23",
"cJ c #ad5025",
"cL c #ad5728",
".b c #ad8876",
"db c #ae4f23",
"cK c #ae5126",
"c5 c #ae552b",
"cI c #af4f25",
"b4 c #af6950",
"dc c #b05123",
"#C c #b05528",
"## c #b0572d",
"cQ c #b05e2e",
"d3 c #b15a2f",
"cG c #b25228",
"#A c #b25529",
"#B c #b2552a",
"da c #b25627",
"a2 c #b2906d",
"#e c #b35321",
"#y c #b35726",
"#z c #b35728",
"dx c #b35a30",
"c7 c #b4572c",
"#. c #b45b31",
".8 c #b55628",
".1 c #b55e29",
"c6 c #b65729",
"d# c #b6592d",
"c8 c #b65a2b",
".0 c #b6612b",
"d. c #b75a2e",
"dj c #b85929",
"ae c #b85c35",
"dy c #b85f35",
"dd c #b9582b",
"cF c #b9592f",
"#x c #b95c30",
".7 c #b95d2e",
"#a c #b95e31",
".3 c #ba5e2b",
"dw c #ba6137",
"df c #bb5b31",
".9 c #bb6238",
".W c #bb8c6e",
"de c #bc5c32",
"di c #bc5d2d",
"dg c #bc5d31",
"#w c #bc5f33",
".6 c #bc6031",
"dD c #bc6134",
"dA c #bc6135",
"dz c #bc6339",
".a c #bca09d",
"c9 c #bd6132",
"dF c #bd6138",
"#m c #bd6233",
"#s c #bd6235",
".Z c #bd6438",
".4 c #bd6537",
"fo c #bd9c93",
"#v c #be6135",
".2 c #be622f",
"#U c #be6337",
"dv c #bf5f39",
"dh c #bf6034",
"#r c #bf6236",
"#Q c #bf6334",
"dE c #bf6437",
"dC c #bf6438",
"aa c #bf6c44",
"#N c #c06133",
"#R c #c06435",
"cC c #c0643b",
"dB c #c06539",
"#O c #c16234",
"#q c #c16438",
"#T c #c16439",
"#S c #c16534",
"dG c #c16637",
"#n c #c16639",
".5 c #c1663a",
"d4 c #c16a3f",
"#o c #c26539",
"cD c #c2653a",
"#p c #c2673a",
"#M c #c36436",
"#u c #c3683b",
"du c #c36e47",
"#P c #c46537",
"#t c #c4673b",
"cE c #c4673c",
".l c #c4805d",
"#L c #c56638",
".Y c #c56938",
"dP c #c58940",
"cB c #c86136",
"d6 c #c87146",
".w c #c89b58",
"#c c #ca703c",
".H c #cb7538",
".V c #cb945e",
"cS c #cd7b4b",
"cV c #cd8258",
"ed c #cd9149",
"b2 c #cd9566",
".I c #cf793c",
"#K c #d06632",
"bR c #d1885b",
"bS c #d18959",
".m c #d18f6c",
"bE c #d3a162",
".G c #d47e41",
"cT c #d48252",
"bT c #d48c5c",
".J c #d57b3d",
"#f c #d5885c",
"bO c #d6895f",
"bN c #d68b61",
"bQ c #d88d63",
"bP c #d88f64",
"fl c #d8994a",
"bA c #d8a169",
".n c #d99774",
"#g c #d9995c",
".X c #da8453",
".R c #da955e",
"cZ c #da9d67",
"ca c #db8846",
"cs c #db9d52",
"c0 c #db9f6d",
"dm c #dba158",
"fS c #dbaea9",
"b5 c #dc9c6e",
".T c #dca15f",
"cc c #dd8448",
"bV c #dd9364",
"#X c #dda455",
"eb c #dda461",
".F c #de8647",
"bJ c #de956a",
"b6 c #dea45a",
"a1 c #deac77",
"eD c #deb065",
".K c #df8748",
"ez c #dfa35a",
"eW c #dfa663",
"dq c #dfa856",
"b9 c #dfac75",
"cb c #e08a4d",
".r c #e09261",
"#Z c #e09e54",
"dt c #e0a46e",
"fm c #e0b38c",
"bG c #e0b588",
"fR c #e0c5bc",
".q c #e19365",
"bU c #e19466",
"c4 c #e1ab6b",
".L c #e28a4b",
".Q c #e29351",
"bK c #e2976d",
"cz c #e2ae74",
"#d c #e38954",
"cd c #e38a4e",
"cq c #e39459",
"fk c #e3aa5d",
"ce c #e48b4f",
".P c #e49654",
"aj c #e4a055",
".t c #e59266",
".y c #e59a63",
"bh c #e5a963",
"ag c #e5aa6e",
"aB c #e5ab6c",
"eZ c #e5ae78",
"cf c #e68d51",
".O c #e69858",
"bM c #e69b71",
".u c #e69d72",
"cW c #e6a86b",
"eA c #e6ab5f",
"#i c #e6af52",
"fL c #e6b572",
"cl c #e78f50",
"bW c #e79d6e",
"#Y c #e7aa6b",
"cj c #e88f53",
"ck c #e89051",
"ct c #e8a95a",
"cg c #e98f53",
"ci c #e99054",
"bI c #e99265",
"ch c #e99356",
".p c #e9986d",
"b0 c #e99a71",
"bL c #e99e74",
"cx c #e9aa63",
"bg c #e9b271",
".z c #ea9052",
".s c #ea9a69",
"d9 c #eaaf69",
"#E c #eab070",
"c# c #eb8f66",
"cp c #eb9153",
".E c #eb9354",
".C c #eb9656",
"cn c #ec9254",
".B c #ec9858",
"bF c #eca85f",
"#h c #ecb364",
"bZ c #eda374",
"bD c #edb169",
"dL c #edb262",
"cm c #ee9456",
".M c #ee9c60",
".N c #ee9f64",
".o c #eea079",
"b1 c #eeac89",
"#G c #eeaf6c",
"#j c #eeb568",
"c1 c #eeb86e",
"bX c #efa274",
"#H c #efad63",
"bl c #efb06d",
"ey c #efb46e",
"aZ c #f0ad66",
"cu c #f0b17c",
"d8 c #f0b66c",
"co c #f19759",
".D c #f1995a",
"bY c #f1a778",
"dO c #f1b167",
"aE c #f1b368",
"dl c #f1b76d",
".A c #f29558",
"c3 c #f2b564",
"dn c #f2b76b",
"ec c #f2b775",
"aX c #f2be73",
"fQ c #f2dad0",
"bj c #f3b67d",
"do c #f3b96f",
"dN c #f3bc6c",
"aD c #f4b66d",
"c2 c #f4b973",
"ah c #f4bc71",
"fj c #f5b681",
"cv c #f5b882",
"e. c #f5b970",
"dr c #f5ba6a",
"dI c #f5bb71",
"ds c #f5bc79",
"eX c #f5bd72",
"cw c #f5bd73",
"bi c #f6b679",
"ai c #f6bc7d",
"cX c #f7b873",
"e# c #f7bc6e",
"fn c #f7d9d7",
"fO c #f7edec",
"aY c #f8b66a",
"dK c #f8bc73",
"aC c #f8c576",
"aG c #f8eeec",
"dJ c #f9be78",
"#W c #f9bf80",
"fM c #f9c383",
"#I c #f9e4d3",
"a3 c #f9ece3",
"#F c #fac26f",
"bH c #fae6cb",
"b8 c #fbb96d",
"cY c #fbbb73",
"eC c #fbc086",
"eY c #fcbb77",
".U c #fdb376",
"bk c #feb863",
"cy c #ffc474",
"b7 c #ffc57e",
"aW c #ffc68e",
"eE c #ffc699",
"cr c #ffca89",
"dQ c #ffca94",
"b3 c #ffcc98",
".S c #ffcd91",
".v c #ffce95",
"bB c #ffd69c",
"e3 c #ffe3d7",
"#1 c #ffe5de",
"bn c #ffe8d4",
"c. c #fff1d3",
"fP c #fff2e7",
"#l c #fff4ea",
"#k c #fff5ef",
"e2 c #fff6ed",
"al c #fff7f3",
"#J c #fff8e8",
"e1 c #fff9f8",
"e0 c #fffbe6",
"QtQtQtQtQtQtQtQtQtQtQtQtQtQtQtQtQtQtQtQtQtQtQtQtQtQtQtQtQtQtQtQtQtQtQtQtQtQtQtQtQtQtQtQtQtQtQtQtQtQt",
"QtQtQtQtQtQtQtQtQtQtQtQtQtQtQtQtQtQtQtQtQtQtQtQtQtQtQtQtQtQtQtQtQtQtQtQtQtQtQtQtQtQtQtQtQtQtQtQtQtQt",
"QtQtQtQtQtQtQtQtQtQtQtQtQtQtQtQtQtQtQtQtQtQtQtQtQtQtQtQtQtQtQtQtQtQtQtQtQtQtQtQtQtQtQtQtQtQtQtQtQtQt",
"QtQtQtQtQtQtQtQtQtQtQtQtQtQtQtQtQtQtQtQtQtQtQtQtQtQtQtQtQtQtQtQtQtQtQtQtQtQtQtQtQtQtQtQtQtQtQtQtQtQt",
"QtQtQtQtQtQtQtQtQtQtQtQtQtQtQtQtQtQtQtQtQtQtQtQtQtQtQtQtQtQtQtQtQtQtQtQtQtQtQtQtQtQtQtQtQtQtQtQtQtQt",
"QtQtQtQtQtQtQtQtQtQtQtQtQtQtQtQtQtQtQtQtQtQtQtQtQtQtQtQtQtQtQtQtQtQtQtQtQtQtQtQtQtQtQtQtQtQtQtQtQtQt",
"QtQtQtQtQtQtQtQtQtQtQtQtQtQtQtQtQtQtQtQtQtQtQtQtQtQtQtQtQtQtQtQtQtQtQtQtQtQtQtQtQtQtQtQtQtQtQtQtQtQt",
"QtQtQtQtQtQtQtQtQtQtQtQtQtQtQtQtQtQtQtQtQtQtQtQtQtQtQtQtQtQtQtQtQtQtQtQtQtQtQtQtQtQtQtQtQtQtQtQtQtQt",
"QtQtQtQtQtQtQtQtQtQtQtQtQtQtQtQtQtQtQtQtQtQtQtQtQtQtQtQtQtQtQtQtQtQtQtQtQtQtQtQtQtQtQtQtQtQtQtQtQtQt",
"QtQtQtQtQtQtQtQtQtQtQtQtQtQtQtQtQtQtQtQtQtQtQtQtQtQtQtQtQtQtQtQtQtQtQtQtQtQtQtQtQtQtQtQtQtQtQtQtQtQt",
"QtQtQtQtQtQtQtQtQtQtQtQtQtQtQtQtQtQtQtQtQtQtQtQtQtQtQtQtQtQtQtQtQtQtQtQtQtQtQtQtQtQtQtQtQtQtQtQtQtQt",
"QtQtQtQtQtQtQtQtQtQtQtQtQtQtQtQtQtQtQtQtQtQtQtQtQtQtQtQtQtQtQtQtQtQtQtQtQtQtQtQtQtQtQtQtQtQtQtQtQtQt",
"QtQtQtQtQtQtQtQtQtQtQtQtQtQtQtQtQtQtQtQtQtQtQtQtQtQtQtQtQtQtQtQtQtQtQtQtQtQtQtQtQtQtQtQtQtQtQtQtQtQt",
"QtQtQtQtQtQtQtQtQtQtQtQtQtQtQtQtQtQtQtQtQtQtQtQtQtQtQtQtQtQtQtQtQtQtQtQtQtQtQtQtQtQtQtQtQtQtQtQtQtQt",
"QtQtQtQtQtQtQtQtQtQtQtQtQtQtQtQtQtQtQtQtQtQtQtQtQtQtQtQtQtQtQtQtQtQtQtQtQtQtQtQtQtQtQtQtQtQtQtQtQtQt",
"QtQtQtQtQtQtQtQtQtQtQtQt.#.a.b.c.d.e.f.g.f.h.i.j.k.l.m.n.o.p.q.r.s.t.u.v.w.xQtQtQtQtQtQtQtQtQtQtQtQt",
"QtQtQtQtQtQtQtQtQtQtQt.y.z.A.B.C.D.z.E.E.F.G.G.H.I.J.K.L.M.N.O.P.Q.R.S.T.U.VQtQtQtQtQtQtQtQtQtQtQtQt",
"QtQtQtQtQtQtQtQtQtQt.W.X.Y.Z.0.1.2.3.4.4.5.6.6.7.8.9#.###a#b#c#d#e#f#g#h#i#j#kQtQtQtQtQtQtQtQtQtQtQt",
"QtQtQtQtQtQtQtQtQt#l#m#n#o#o#p#p#q#r#s#s#o#t#u#s#v#w#w#x#y#z#A#B#C#D#E#F#G#H#IQtQtQtQtQtQtQtQtQtQtQt",
"QtQtQtQtQtQtQtQtQt#J#K#L#M#M#N#N#M#O#O#O#P#M#M#L#L#Q#Q#R#S#S#q#T#U#V#W#X#Y#Z#0QtQtQtQtQtQtQtQtQtQtQt",
"QtQtQtQtQtQtQtQtQt#1#2#3#4#4#5#5#6#6#6#6#7#7#7#8#8#9a.a#aaabacadaeafagahaiajakQtQtQtQtQtQtQtQtQtQtQt",
"QtQtQtQtQtQtQtQtQtalamanaoaoapapaqaqapaparasasatatauauavawaxayatazaAaBaCaDaEaFQtQtQtQtQtQtQtQtQtQtQt",
"QtQtQtQtQtQtQtQtQtaGaHaIaJaJaKaKaLaLaMaMaNaOaOaPaPaQaQaRaOaSaTaQaUaVaWaXaYaZa0a1a2a3QtQtQtQtQtQtQtQt",
"QtQtQtQtQtQtQtQtQtQta4a5a6a6a7a7a8a8a7a7a9b.b#babbb.b#b#b#b#bcbcbdbebfbgbhbibjbkblbmQtQtQtQtQtQtQtQt",
"QtQtQtQtQtQtQtQtQtQtbnbobpbpbqbqbrbrbrbrbsbtbtbebebubububvbwbxbxbsbybzbAbBbCbDbEbFbGQtQtQtQtQtQtQtQt",
"QtQtQtQtQtQtQtQtQtbHbIbJbKbLbMbNbObObPbPbQbRbSbTbTbUbVbWbXbXbYbZb0b1b2b3b4b5b6b7b8b9QtQtQtQtQtQtQtQt",
"QtQtQtQtQtQtQtQtc.c#cacbcccdcecfcgcgchchcicjckclclcmcncococococpcqcrcsctcucvcwcxcyczQtQtQtQtQtQtQtQt",
"QtQtQtQtQtQtQtQtcAcBcCcDcEcEcFcGcHcIcJcKcJcLcMcNcOcPcPcQcRcScTcUcVcWcXcYcZc0c1c2c3c4QtQtQtQtQtQtQtQt",
"QtQtQtQtQtQtQtQtc5c6c7c8c9c9d.d.d#d#dadadbdcdcc6dddededfdgdhdidjdkdldmdndodpdqdrdsdtQtQtQtQtQtQtQtQt",
"QtQtQtQtQtQtQtQtdudvdwdxdydydzdz.9.9dAdAdBdBdBdC.5dDdDdEcCdF#udGdHdIdJdKdLdMdNdOdPdQQtQtQtQtQtQtQtQt",
"QtQtQtQtQtQtQtQtaodRdSdTdUdUdVdWdXdXdYdYdZd0d0d1d1d2d3d4#7#7d5d6d7d8d9e.e#eaebecedeeQtQtQtQtQtQtQtQt",
"QtQtQtQtQtQtQtQtefegeheiejejekelememeneneoepepeqeqerayeseteuevewexdleyezeAeBeCeDeEQtQtQtQtQtQtQtQtQt",
"QtQtQtQtQtQtQtQteFeGeHeIeJeJeKeLeMaJaLaLeNeOePavavemeQeReSeSeTeUeVeWeXeYeZe0e1e2QtQtQtQtQtQtQtQtQtQt",
"QtQtQtQtQtQtQtQte3e4e5e6e7e7e8e9f.f#fafafbfcbdbbbbfda9fefffffgfhfifjfkflfmQtQtQtQtQtQtQtQtQtQtQtQtQt",
"QtQtQtQtQtQtQtQtQtfnfofpfqfrfsftfufvfwfwfxfyfzfAfBfCfDfEfFfGfHfIfJfKfLfMfNQtQtQtQtQtQtQtQtQtQtQtQtQt",
"QtQtQtQtQtQtQtQtQtQtQtQtQtQtQtQtQtQtQtQtQtQtfOQtQtQtQtQtQtfPfQfRfSfTfUfVQtQtQtQtQtQtQtQtQtQtQtQtQtQt",
"QtQtQtQtQtQtQtQtQtQtQtQtQtQtQtQtQtQtQtQtQtQtQtQtQtQtQtQtQtQtQtQtQtQtQtQtQtQtQtQtQtQtQtQtQtQtQtQtQtQt",
"QtQtQtQtQtQtQtQtQtQtQtQtQtQtQtQtQtQtQtQtQtQtQtQtQtQtQtQtQtQtQtQtQtQtQtQtQtQtQtQtQtQtQtQtQtQtQtQtQtQt",
"QtQtQtQtQtQtQtQtQtQtQtQtQtQtQtQtQtQtQtQtQtQtQtQtQtQtQtQtQtQtQtQtQtQtQtQtQtQtQtQtQtQtQtQtQtQtQtQtQtQt",
"QtQtQtQtQtQtQtQtQtQtQtQtQtQtQtQtQtQtQtQtQtQtQtQtQtQtQtQtQtQtQtQtQtQtQtQtQtQtQtQtQtQtQtQtQtQtQtQtQtQt",
"QtQtQtQtQtQtQtQtQtQtQtQtQtQtQtQtQtQtQtQtQtQtQtQtQtQtQtQtQtQtQtQtQtQtQtQtQtQtQtQtQtQtQtQtQtQtQtQtQtQt",
"QtQtQtQtQtQtQtQtQtQtQtQtQtQtQtQtQtQtQtQtQtQtQtQtQtQtQtQtQtQtQtQtQtQtQtQtQtQtQtQtQtQtQtQtQtQtQtQtQtQt",
"QtQtQtQtQtQtQtQtQtQtQtQtQtQtQtQtQtQtQtQtQtQtQtQtQtQtQtQtQtQtQtQtQtQtQtQtQtQtQtQtQtQtQtQtQtQtQtQtQtQt",
"QtQtQtQtQtQtQtQtQtQtQtQtQtQtQtQtQtQtQtQtQtQtQtQtQtQtQtQtQtQtQtQtQtQtQtQtQtQtQtQtQtQtQtQtQtQtQtQtQtQt",
"QtQtQtQtQtQtQtQtQtQtQtQtQtQtQtQtQtQtQtQtQtQtQtQtQtQtQtQtQtQtQtQtQtQtQtQtQtQtQtQtQtQtQtQtQtQtQtQtQtQt",
"QtQtQtQtQtQtQtQtQtQtQtQtQtQtQtQtQtQtQtQtQtQtQtQtQtQtQtQtQtQtQtQtQtQtQtQtQtQtQtQtQtQtQtQtQtQtQtQtQtQt",
"QtQtQtQtQtQtQtQtQtQtQtQtQtQtQtQtQtQtQtQtQtQtQtQtQtQtQtQtQtQtQtQtQtQtQtQtQtQtQtQtQtQtQtQtQtQtQtQtQtQt",
"QtQtQtQtQtQtQtQtQtQtQtQtQtQtQtQtQtQtQtQtQtQtQtQtQtQtQtQtQtQtQtQtQtQtQtQtQtQtQtQtQtQtQtQtQtQtQtQtQtQt",
"QtQtQtQtQtQtQtQtQtQtQtQtQtQtQtQtQtQtQtQtQtQtQtQtQtQtQtQtQtQtQtQtQtQtQtQtQtQtQtQtQtQtQtQtQtQtQtQtQtQt",
"QtQtQtQtQtQtQtQtQtQtQtQtQtQtQtQtQtQtQtQtQtQtQtQtQtQtQtQtQtQtQtQtQtQtQtQtQtQtQtQtQtQtQtQtQtQtQtQtQtQt"};
