/* XPM */
static char *result[] = {
/* columns rows colors chars-per-pixel */
"50 50 79 1 ",
"  c #311700",
". c #361D09",
"X c #391E0B",
"o c #3C210D",
"O c #352315",
"+ c #3C2513",
"@ c #3E2914",
"# c #392718",
"$ c #3E2919",
"% c #452005",
"& c #482507",
"* c #44240D",
"= c #4A250C",
"- c #4D290E",
"; c #502B0F",
": c #442611",
"> c #4A2711",
", c #452913",
"< c #4C2B14",
"1 c #442D1B",
"2 c #4C2E19",
"3 c #522D14",
"4 c #522F1A",
"5 c #45301B",
"6 c #4E321C",
"7 c #553116",
"8 c #583317",
"9 c #54331C",
"0 c #5A351C",
"q c #5D391D",
"w c #603C1F",
"e c #422F21",
"r c #463122",
"t c #4D3421",
"y c #4F3A26",
"u c #4A3729",
"i c #4E3C2D",
"p c #533622",
"a c #5B3621",
"s c #553925",
"d c #5C3A24",
"f c #513728",
"g c #543C2C",
"h c #5B3D2A",
"j c #563E30",
"k c #613D24",
"l c #613E2A",
"z c #55412F",
"x c #5D422D",
"c c #564232",
"v c #5B4333",
"b c #5B4837",
"n c #54463A",
"m c #59473B",
"M c #5B4A3B",
"N c #5D503F",
"B c #654127",
"V c #63422C",
"C c #69442B",
"Z c #6E492F",
"A c #614532",
"S c #6D4630",
"D c #654933",
"F c #694D37",
"G c #614738",
"H c #604939",
"J c #6B4E39",
"K c #704D3A",
"L c #66503B",
"P c #6D513C",
"I c #645243",
"U c #6D5B4B",
"Y c #705E4F",
"T c #736252",
"R c #796554",
"E c #7A6959",
"W c #FFFBF6",
"Q c #FFFDF9",
"! c None",
/* pixels */
"!!!!!!!!!!!!!!!!IRPFKlllKlkkkkklVI!!!!!!!!!!!!!!!!",
"!!!!!!!!!!!!!!!!ivppakkkqkkkkqklDI!!!!!!!!!!!!!!!!",
"!!!!!!!!!!!!!!!!mv2p4a448q0q00aaPU!!!!!!!!!!!!!!!!",
"!!!!!!!!!!!!!!!!mb:6>00800000084PT!!!!!!!!!!!!!!!!",
"!!!!!!!!!!!!!!!!cbo6><77788q3738PT!!!!!!!!!!!!!!!!",
"!!!!!!!!!!!!!!!!ML,9<=3;3778;030PR!!!!!!!!!!!!!!!!",
"!!!!!!!!!!!!!!!!Mg5s:>3<88-7;w73PT!!!!!!!!!!!!!!!!",
"!!!!!!!!!!!!!!!!I56s*=3=38;8;037PE!!!!!!!!!!!!!!!!",
"!!!!!!!!!!!!!!!!M2pp>=3%;;-w&878PT!!!!!!!!!!!!!!!!",
"!!!!!!!!!!!!!!!!Mrtt>=0=-87w;q08PTQ!!!!!!!!!!!!!!!",
"!!!!!!!!!!!!!!!!Mit4>>a=-8;q7780PTQ!!!!!!!!!!!!!!!",
"!!!!!!!!!!!!!!!!njfar>k=-7&qw-0BPTQ!!!!!!!!!!!!!!!",
"!!!!!!!!!!!!!!!!nvgg2>a=38-wB;qCPTW!!!!!!!!!!!!!!!",
"!!!!!!!!!!!!!!!!nnvst<a43w30B8wBFTW!!!!!!!!!!!!!!!",
"!!!!!!!!!!!!!!!!ncvt44k77830w88wDUW!!!!!!!!!!!!!!!",
"!!!!!!!!!!!!!!!!mgvfp4a4w03www0CDUW!!!!!!!!!!!!!!!",
"!!!!!!!!!!!!!!!!mOAfjhaa4k7w4k0SVYW!!!!!!!!!!!!!!!",
"!!!!!!!!!!!!!!!!cOGgGgfp9k8kwk0CxUW!!!!!!!!!!!!!!!",
"!!!!!!!!!!!!!!!!i+GgGhjdak4kkB0VsIW!!!!!!!!!!!!!!!",
"!!!!!!!!!!!!!!!!u1Hgjjhhlh7kalaAsIQ!!!!!!!!!!!!!!!",
"!!!!!!!!!!!!!!!!utHgvgGhAl4lkVhAsMQ!!!!!!!!!!!!!!!",
"!!!!!!!!!!!!!!!!rfvgcjjgll0hdhVAtbQ!!!!!!!!!!!!!!!",
"!!!!!!!!!!!!!!!!efvgjjvpjl9hshAvszW!!!!!!!!!!!!!!!",
"!!!!!!!!!!!!!!!!egjgvjvthhpdshGxsbQ!!!!!!!!!!!!!!!",
"!!!!!!!!!!!!!!!!rfjfjjjtpl4hhhvf6MW!!!!!!!!!!!!!!!",
"!!!!!!!!!!!!!!!!eflalfftpl9hhhvt6bW!!!!!!!!!!!!!!!",
"!!!!!!!!!!!!!!!!etjfjffp4l4aagh26bW!!!!!!!!!!!!!!!",
"!!!!!!!!!!!!!!!!rpgtf4pppl449dhp6bW!!!!!!!!!!!!!!!",
"!!!!!!!!!!!!!!!!t4f221t4ak8q9dhp6bW!!!!!!!!!!!!!!!",
"!!!!!!!!!!!!!!!!e44t21><4a80800s6cW!!!!!!!!!!!!!!!",
"!!!!!!!!!!!!!!!!e2tpt<<34437--302vW!!!!!!!!!!!!!!!",
"!!!!!!!!!!!!!!!!e22422<333=-%&<d2zW!!!!!!!!!!!!!!!",
"!!!!!!!!!!!!!!!!@6222<2>4;73==374jW!!!!!!!!!!!!!!!",
"!!!!!!!!!!!!!!!!#<,6apa033;;;=;74hW!!!!!!!!!!!!!!!",
"!!!!!!!!!!!!!!!!$1<6dpa9004733=39jW!!!!!!!!!!!!!!!",
"!!!!!!!!!!!!!!!!1,,2924>43;7;;3>2gW!!!!!!!!!!!!!!!",
"!!!!!!!!!!!!!!!!@<,>4>3>>=30=>4>2z!!!!!!!!!!!!!!!!",
"!!!!!!!!!!!!!!!!#<,>>*>>4>4k=>344z!!!!!!!!!!!!!!!!",
"!!!!!!!!!!!!!!!!@,,><*:>=<>a>>442z!!!!!!!!!!!!!!!!",
"!!!!!!!!!!!!!!!!@>*><:=-<04a4>*a2g!!!!!!!!!!!!!!!!",
"!!!!!!!!!!!!!!!!$5<<6%<<9><93-<96i!!!!!!!!!!!!!!!!",
"!!!!!!!!!!!!!!!!$o*6<*2>9>796<6s2g!!!!!!!!!!!!!!!!",
"!!!!!!!!!!!!!!!!$ ,6,,<,9><633<91i!!!!!!!!!!!!!!!!",
"!!!!!!!!!!!!!!!!$ ,6,<<,2=<33669,i!!!!!!!!!!!!!!!!",
"!!!!!!!!!!!!!!!!#o,,19<<<=23;769,z!!!!!!!!!!!!!!!!",
"!!!!!!!!!!!!!!!!#,,@,5:,>*<<,3;6,z!!!!!!!!!!!!!!!!",
"!!!!!!!!!!!!!!!!#1++::o***=>-<;,@z!!!!!!!!!!!!!!!!",
"!!!!!!!!!!!!!!!!O@.:oo,,<*2>,3<-@i!!!!!!!!!!!!!!!!",
"!!!!!!!!!!!!!!!!O:Oo++*o@,,<5<<5@z!!!!!!!!!!!!!!!!",
"!!!!!!!!!!!!!!!!#111tttt6ssxxxxxyN!!!!!!!!!!!!!!!!"
};
