/* XPM */
static char *result[] = {
/* columns rows colors chars-per-pixel */
"50 50 215 2 ",
"   c #0A0A0C",
".  c #190E10",
"X  c #121214",
"o  c #1B1B1A",
"O  c #27080A",
"+  c #2C2726",
"@  c #352728",
"#  c #2E322D",
"$  c #36332A",
"%  c #323332",
"&  c #460304",
"*  c #4C0405",
"=  c #4A090A",
"-  c #4F0608",
";  c #550304",
":  c #5C0304",
">  c #5D0608",
",  c #550B0C",
"<  c #5C0809",
"1  c #5E110C",
"2  c #4E0F10",
"3  c #5C1515",
"4  c #640204",
"5  c #6B0304",
"6  c #640709",
"7  c #630C0C",
"8  c #6A090A",
"9  c #6C0708",
"0  c #740304",
"q  c #7B0204",
"w  c #730A0B",
"e  c #7A0A0B",
"r  c #780807",
"t  c #6F0F10",
"y  c #7C0F11",
"u  c #621314",
"i  c #6C1C1C",
"p  c #671818",
"a  c #761614",
"s  c #7B1213",
"d  c #751A1B",
"f  c #7D1C1D",
"g  c #7A1B15",
"h  c #55221A",
"j  c #68351A",
"k  c #7B3A1F",
"l  c #663C0B",
"z  c #5E1E20",
"x  c #701D20",
"c  c #5A2526",
"v  c #572C2D",
"b  c #443E25",
"n  c #5E3326",
"m  c #423836",
"M  c #5A3236",
"N  c #6C2B2B",
"B  c #692224",
"V  c #792422",
"C  c #782827",
"Z  c #7C302F",
"A  c #6E3F3D",
"S  c #783E3E",
"D  c #7B5709",
"F  c #494336",
"G  c #44423B",
"H  c #57503A",
"J  c #6D422B",
"K  c #6F5225",
"L  c #6C5239",
"P  c #77663F",
"I  c #474B47",
"U  c #4F534D",
"Y  c #5B5443",
"T  c #56574D",
"R  c #5B5F5B",
"E  c #535956",
"W  c #5A4647",
"Q  c #794442",
"!  c #724445",
"~  c #655D46",
"^  c #7F5546",
"/  c #645D5D",
"(  c #6F5352",
")  c #785253",
"_  c #6D494A",
"`  c #7D704A",
"'  c #6C695A",
"]  c #6A6652",
"[  c #756B55",
"{  c #796B5B",
"}  c #7A6B49",
"|  c #626562",
" . c #6B6061",
".. c #736766",
"X. c #7C746A",
"o. c #777666",
"O. c #6C6C76",
"+. c #706C76",
"@. c #6D7372",
"#. c #76747A",
"$. c #840204",
"%. c #8B0204",
"&. c #860708",
"*. c #830B0C",
"=. c #8C080B",
"-. c #940204",
";. c #9C0204",
":. c #93090A",
">. c #9A090C",
",. c #8F1B0D",
"<. c #910F11",
"1. c #821214",
"2. c #8E1415",
"3. c #841A1B",
"4. c #871719",
"5. c #9D1214",
"6. c #9C1B1A",
"7. c #951617",
"8. c #A40304",
"9. c #AC0204",
"0. c #AC0709",
"q. c #A20D0D",
"w. c #A50A07",
"e. c #B40204",
"r. c #BC0204",
"t. c #B40708",
"y. c #B90708",
"u. c #B5090A",
"i. c #B8090B",
"p. c #A9110F",
"a. c #AF0F11",
"s. c #A51111",
"d. c #AD1314",
"f. c #A41E1F",
"g. c #AC1C1E",
"h. c #BB1A19",
"j. c #8F2113",
"k. c #9C2819",
"l. c #801D20",
"z. c #822B2A",
"x. c #872525",
"c. c #952D2B",
"v. c #942423",
"b. c #89312F",
"n. c #95322A",
"m. c #8B3433",
"M. c #853E3C",
"N. c #893737",
"B. c #943635",
"V. c #A22624",
"C. c #B12A2C",
"Z. c #BB2B2B",
"A. c #BE2626",
"S. c #A23B3C",
"D. c #A23236",
"F. c #B83637",
"G. c #C30204",
"H. c #C00C0B",
"J. c #C11F20",
"K. c #C22524",
"L. c #845D10",
"P. c #9E680A",
"I. c #A06F11",
"U. c #83432B",
"Y. c #85403D",
"T. c #8A423D",
"R. c #907321",
"E. c #8E7332",
"W. c #844F52",
"Q. c #974F51",
"!. c #875955",
"~. c #965455",
"^. c #915147",
"/. c #B94B4D",
"(. c #A05252",
"). c #B75759",
"_. c #826B5B",
"`. c #846A57",
"'. c #8A7656",
"]. c #827E6D",
"[. c #827962",
"{. c #876870",
"}. c #887E7B",
"|. c #B3706F",
" X c #B07F7D",
".X c #B96564",
"XX c #C76768",
"oX c #8D8467",
"OX c #89847B",
"+X c #8C897E",
"@X c #888477",
"#X c #978D76",
"$X c #96917E",
"%X c #8F8D83",
"&X c #868880",
"*X c #948A85",
"=X c #999487",
"-X c #949293",
";X c #AC8585",
":X c #A49B81",
">X c #BA9493",
",X c #B49A87",
"<X c #A6A18A",
"1X c #A8A496",
"2X c #BCB598",
"3X c #B1AFAD",
"4X c #A9A9AA",
"5X c #C38583",
"6X c #C2B2B2",
"7X c #CCCBC8",
"8X c #D6D2D1",
"9X c #D8C8C7",
"0X c #E3D7D5",
"qX c #ECE8E6",
"wX c None",
/* pixels */
"wXwXwXwXwXwXwXwXwXwXwXwXwXwXwXwXwXwXwXwXwXwXwXwXwXwXwXwXwXwXwXwXwXwXwXwXwXwXwXwXwXwXwXwXwXwXwXwXwXwX",
"wXwXwXwXwXwXwXwXwXwXwXwXwXwXwXwXwXwXwXwXwXwXwXwXwXwXwXwXwXwXwXwXwXwXwXwXwXwXwXwXwXwXwXwXwXwXwXwXwXwX",
"wXwXwXwXwXwXwXwXwXwXwXwXwXwXwXwXwXwXwXwX3 .XB & wXwXwXwXwXwXwXwXwXwXwXwXwXwXwXwXwXwXwXwXwXwXwXwXwXwX",
"wXwXwXwXwXwXwXwXwXwXwXwXwXwXwXwXwXwXwXi C.F.7 h j l D wXwXwXwXwX5 1.wXwXwXwXwXwXwXwXwXwXwXwXwXwXwXwX",
"wXwXwXwXwXwXwXwXwXwXwXwXwXwXwXwXwXwX9 C.9.e.: n K L.P.I.R.E.'.wX9.h.f.wXwXwXwXwXwXwXwXwXwXwXwXwXwXwX",
"wXwXwXwXwXwXwXwXwXwXwXwXwXwXwXwXwXwXv.e.e.9.1.x u < 5 9 1 4 4 * $.8.>.<.wXwXwXwXwXwXwXwXwXwXwXwXwXwX",
"wXwXwXwXwXwXwXwXwXwXwXwXwXwXwXwXwXwXB.e.r.e.>.a t r %.$.w 5 q *.=.9.u.>.q wXwXwXwXwXwXwXwXwXwXwXwXwX",
"wXwXwXwXwXwXwXwXwXwXwXwXwXwXwXwXwXwXQ.8.e.;.q &.:.e.e.e.9.-.0 8.e.G.e.;.q wXwXwXwXwXwXwXwXwXwXwXwXwX",
"wXwXwXwXwXwXwXwXwXwXwXwXwXwXwXwXwXwXy 0 ;.0 N.5X5XZ.G.r.a.).6.=.e.e.w.$.q wXwXwXwXwXwXwXwXwXwXwXwXwX",
"wXwXwXwXwXwXwXwXwXwXwXwXwXwXwXwXwXwXr p 9 4.>X8X9XXXG.K.5XqX>X4.;.8.%.q wXwXwXwXwXwXwXwXwXwXwXwXwXwX",
"wXwXwXwXwXwXwXwXwXwXwXwXwXwXwXwXwXwXw 3 8.Q.3X3X3XXXe.F.8XqX7XD.=.3.p & wXwXwXwXwXwXwXwXwXwXwXwXwXwX",
"wXwXwXwXwXwXwXwXwXwXwXwXwXwXwXwXwXwXQ $.G.;X..m { (.:.B.-X/ 7X/.<.q wXwXwXwXwXwXwXwXwXwXwXwXwXwXwXwX",
"wXwXwXwXwXwXwXwXwXwXwXwXwXwXwXwXwX0 : ;.G.|.W m A x.e C  .X 4X/.a.%.9 wXwXwXwXwXwXwXwXwXwXwXwXwXwXwX",
"wXwXwXwXwXwXwXwXwXwXwXwXwXwXwXwXwX8 3 $.9.g.S.B.2.9.e.5.M.v  XK.y.$.: ; wXwXwXwXwXwXwXwXwXwXwXwXwXwX",
"wXwXwXwXwXwXwX$ b wXwXwXwXwXwXwXwXwXx 4 %.%.;.;.;.9.e.8.q.Z.f.0.;.f d wXwXwXwXwXwXwXwXwXwXwXwXwXwXwX",
"wXwXwXwXwXwXI ' ` H ~ [ | I wXwXwXwX0 5 0 q %.%.%.$.%.-.8.;.%.;.e d wXwXwXwXwXwXwXwXwXwXwXwXwXwXwXwX",
"wXwXwXwXwXwXwXwXwXwXwX} =XOXU wXwXwXwXwX5 : 0 $.-.-.;.;.;.%.q 5 9 w wXwXwXwXwXwXwXwXwXwXwXwXwXwXwXwX",
"wXwXwXwXwXwXwXwXwXwXwXwX'.T | R wXwXwXwXz > ; ; 5 0 q 0 5 : ; ; V a wXwXwXwXwXwXwXwXwXwXwXwXwXwXwXwX",
"wXwXwXwXwXwXwXwXwXwXwXwXwXwX<Xo.# wXwXwX< %.8.8.$.0 5 0 q q 4 : 6 C f wXwXwXwXwXwXwXwXwXwXwXwXwXwXwX",
"wXwXwXwXwXwXwXwXwXwXwXwXwXwX} oX@.# $ c $.9.G.G.G.G.r.e.9.%.5 : 5 5 d g 4 & wXq q wXwXwXwXwXwXwXwXwX",
"wXwXwXwXwXwXwXwXwXwXwXwXwXwXwXwX].L - 4 8.r.G.G.G.e.r.r.e.-.5 : ; 4 $.8.w.p.6.= 4 ~.B wXwXwXwXwXwXwX",
"wXwXwXwXwXwXwXwXwXwXwXwXwXwXwXwXR -XA %.e.e.e.;.;.8.9.e.e.-.q 4 ; 0 :.9.r.y.>.&.0.-.M.wXwXwXwXwXwXwX",
"wXwXwXwXwXwXwXwXwXwXwXwXwXwXwXwXwX}.W.;.e.-.;.e.e.-.$.%.q.7.f x @ c z.c.n.B.Y.T.v.u.%.T.b.wXwXwXwXwX",
"wXwXwXwXwXwXwXwXwXwXwXwXwXwXwXwXwX-X*Xc.m.^.b.s.e.8.$.r V { { { @X+X+X$X$X#X#X^.n.u.s.C wXwXwXwXwXwX",
"wXwXwXwXwXwXwXwXwXwXT OX[ [.' ] @X}.OX{._.`.^ 6.9.8.$.q g U.k j J '.:X1X2X2X,Xg %.;.3.u wXwXwXwXwXwX",
"wXwXwXwXwXwXwXwXwXR T o.oX~ F G ~ `.{ !.k.j.,.w.8.%.0 0 ;.&.q 5 * wXwXwXwXwXwXwXwX4 * wXwXwXwXwXwXwX",
"wXwXwXwXwXwX5 ;.7.( o % G + X   + _ S ~.t.;.%.%.$.0 q -.;.$.q 7 , wXwXwXwXwXwXwXwXwXwXwXwXwXwXwXwXwX",
"wXwXwXwXwX$.$.%.=.l.N . & O     @ Q N {.0.-.q 0 5 4 q 8.-.$.0 w wXwXwXwXwXwXwXwXwXwXwXwXwXwXwXwXwXwX",
"wXwXwXwX$.%.;.wXwXwXe $.v.1.q - @ ) c +.6 : %.8.$.0 -.;.%.0 4 5 wXwXwXwXwXwXwXwXwXwXwXwXwXwXwXwXwXwX",
"wXwXwXwX;.0 * wXwXwXwXwX&.q -.f.S.Z c O.= 0 8.8.%.$.;.-.q 0 N = wXwXwXwXwXwXwXwXwXwXwXwXwXwXwXwXwXwX",
"wXwXwXwX;.q & wXwXwXwXwXwXwXq %.-.y M  .6 %.;.-.q $.-.$.0 ; & wXwXwXwXwXwXwXwXwXwXwXwXwXwXwXwXwXwXwX",
"wXwXwXwX;.0 & wXwXwXwXwXwXwXwXwXwXwX#._ : 0 $.q q q 0 5 4 q wXwXwX0 q V d q wXwXwXwXwXwXwXwXwXwXwXwX",
"wXwXwXwXwX5 : wXwXwXwXwXwXwXwXwX| E #.B 6 6 5 0 0 5 4 4 : q q : d e $.-.-.&.f wXwXwXwXwXwXwXwXwXwXwX",
"wXwXwXwXwXwX;.wXwXwXwXwXwXwXwX%X%X&XwX* , : 5 4 4 4 0 $.;.;.8.8.9.e.e.e.0.5.Q.wXwXwXwXwXwXwXwXwXwXwX",
"wXwXwXwXwXwX%.$.wXwXwXwXwX1X=X' Y wXwXwX* 4 0 5 5 %.8.8.9.9.i.t.r.G.G.G.G.t.V.wXwXwXwXwXwXwXwXwXwXwX",
"wXwXwXwXwXwXq $.wXwXwXwXwXwXwXwXwXwXwX& 0 8.9.:.$.%.%.%.wXwXw w :.wX8.d.Z.A.wXwXwXwXwXwXwXwXwXwXwXwX",
"wXwXwXwXwXwXwX$.;.wXwXwXwXwXwXwXwXwXwX5 0 r.G.s.w : wXwXwXwXwXwXwXwXwXwXwXwXwXwXwXwXwXwXwXwXwXwXwXwX",
"wXwXwXwXwXwXwXwX$.$.wXwXwXwXwXwXwXwXwX$.C t.G.>.8 & wXwXwXwXwXwXwXwXwXwXwXwXwXwXwXwXwXwXwXwXwXwXwXwX",
"wXwXwXwXwXwXwXwX$.;.$.wXwXwXwXwXwXwXwXwX*.8.0.2.1 & wXwXwXwXwXwXwXwXwXwXwXwXwXwXwXwXwXwXwXwXwXwXwXwX",
"wXwXwXwXwXwXwXwXwX$.;.$.wXwXwXwXwXwXwXwXq -.-.j.wXwXwXwXwXwXwXwXwXwXwXwXwXwXwXwXwXwXwXwXwXwXwXwXwXwX",
"wXwXwXwXwXwXwXwXwX$.h.J.wXwXwXwXwXwXwXwXwX0 0 d wXwXwXwXwXwXwXwXwXwXwXwXwXwXwXwXwXwXwXwXwXwXwXwXwXwX",
"wXwXwXwXwXwXwXwXwXwXq $.wXwXwXwXwXwXwXq , 6 0 4 , 2 wXwXwXwXwXwXwXwXwXwXwXwXwXwXwXwXwXwXwXwXwXwXwXwX",
"wXwXwXwXwXwXwXwXwXwXwXwXwXwXwXwXwXwXwX$.4 q $.q V Q wXwXwXwXwXwXwXwXwXwXwXwXwXwXwXwXwXwXwXwXwXwXwXwX",
"wXwXwXwXwXwXwXwXwXwXwXwXwXwXwXwXwXwXwXwX-.8.8.;.$.s wXwXwXwXwXwXwXwXwXwXwXwXwXwXwXwXwXwXwXwXwXwXwXwX",
"wXwXwXwXwXwXwXwXwXwXwXwXwXwXwXwXwXwXwXs e.r.r.r.e.7.z.wXwXwXwXwXwXwXwXwXwXwXwXwXwXwXwXwXwXwXwXwXwXwX",
"wXwXwXwXwXwXwXwXwXwXwXwXwXwXwXwXwXwXwX* -.t.G.G.H.s.e wXwXwXwXwXwXwXwXwXwXwXwXwXwXwXwXwXwXwXwXwXwXwX",
"wXwXwXwXwXwXwXwXwXwXwXwXwXwXwXwXwXwXwXwXwX5 0 5 *.wXwXwXwXwXwXwXwXwXwXwXwXwXwXwXwXwXwXwXwXwXwXwXwXwX",
"wXwXwXwXwXwXwXwXwXwXwXwXwXwXwXwXwXwXwXwXwXwXwXwXwXwXwXwXwXwXwXwXwXwXwXwXwXwXwXwXwXwXwXwXwXwXwXwXwXwX",
"wXwXwXwXwXwXwXwXwXwXwXwXwXwXwXwXwXwXwXwXwXwXwXwXwXwXwXwXwXwXwXwXwXwXwXwXwXwXwXwXwXwXwXwXwXwXwXwXwXwX",
"wXwXwXwXwXwXwXwXwXwXwXwXwXwXwXwXwXwXwXwXwXwXwXwXwXwXwXwXwXwXwXwXwXwXwXwXwXwXwXwXwXwXwXwXwXwXwXwXwXwX"
};
