/* XPM */
static char *result[] = {
/* columns rows colors chars-per-pixel */
"50 50 36 1 ",
"  c #38571E",
". c #456626",
"X c #486426",
"o c #456A26",
"O c #496A27",
"+ c #476628",
"@ c #4D6C2A",
"# c #526E2C",
"$ c #596C2E",
"% c #4E702B",
"& c #54732E",
"* c #58742F",
"= c #56792F",
"- c #58782F",
"; c #577430",
": c #5B7631",
"> c #577830",
", c #5D7A32",
"< c #627634",
"1 c #697736",
"2 c #637C35",
"3 c #687F37",
"4 c #677F38",
"5 c #697E38",
"6 c #658137",
"7 c #678138",
"8 c #6B833A",
"9 c #6E893C",
"0 c #71863D",
"q c #73893E",
"w c #758540",
"e c #768C40",
"r c #7A8E42",
"t c #7C9143",
"y c #819245",
"u c #849848",
/* pixels */
"&,q2879#;&2,&;6%969<>4t,q&;&q92,%q- 9,&20788<9<&&,",
"244,6,6:8e&7,,,,2,4,,8426q8:49;,%,2*<:4&&2&-65,,6=",
",-2.622&72,9;,:,45;286,<27,,&r:0,&,&6,:0&2&*97,26&",
"<2&7,262477<0r6,&47777<Oo,:5&86w24&@777#&*6<47,2:#",
",&;,78,:67e226<:7,474:,:&,<&::,8&9*,:&8;:4&7<,=493",
":::<672,&27,:,q&<,872*44,*:37&#&:432,2,&<*7866@<4q",
";<&:96224<,<:766,6&9q<2:&228,44,:482,:&&75,#,:=7<8",
"*5<4&7q<:6q2,,876X,704478-2,,<4=676=&:,648rO<q#6,#",
"27,<,77#:&2,,,&77:72&::54<534@,q:<<-2*=620:&<8&,7,",
"54qq2,<92:2,6;%;,&:42,:42&42:&,82&&&026q74&:6,,821",
"4::::&#9,:@,q;,;27;4<<&4&#9:##&qO2q6<&&<,5*4:2&::@",
"172<9q47636q67,76e,<,29,69,,<#:,&7<7qq-&34&92:&q0&",
"65*1::26:,,7<,76,8&:,&,,8,,<,<67,47707&::27,2:&85#",
"4,*#*:q<::,q:,,7,:2;@&69t6;4,94<424t27*<,29:<9;##,",
"q<$#r,#7&#<%,;&2,#6:&#&;@2<77@,=&:&7O4;,@7e2<:6#5<",
"4:,&7<15,2:<<&<:,:,,45:@%,<8,:,&4<7**,,,&<<262<,<2",
"6427<250**q*&:<@:,:64;823;0:&92:622.:&:4#-7:,,2,<O",
"846::=4:<q658,0,&t,q7;8q8596q,,867@,&=&8&O<8,<q6,#",
"*62&7&&<:9r$*&20:;47,84:<t697,048:47O%426&r2,7#7,#",
"262&::94<8q6:*9*<&@*7;,,:<6,<&,4:,<227,7920,774,,:",
"922=;2r,,7,909&&:4,<7,:7,9,,<,<:279&497;6*&2:,,,72",
"34:q:,;,,,0&e6@7&<7q7=<5,:#26@&,O@22,&7=::62:4&4:5",
":,%2,42,O,q:&4;2677*<22,,<*&72::742=&*&882&,0-&:70",
":::r2262,&q84&,<24*&9<,,=,,,:&2@&7,<%&222,4,22#&<2",
"5&<o7<;89979;,98<&*:qq<,Oq,,<226&,;<,67e%:99&q4ee,",
"770,&&X:q8t7<,9,7,&27q&32<:7278,O746,,,O,;q2&e,:<$",
",4<4264*,<&>,,;;@9,2,7&4&7&&r6=%>228q4#2,22<67&&82",
",<*:*,88=7,,,:2,2r*,:9&6288=,&&6976,2>*9,<,722#:7;",
"#<=q2<<972q:6,66;,8,,&,q286:*6,&7q,:99<;,4,%,$4:,4",
"<-,:7698,&=7,q=<:e72,;8664,,;$62,*2&7&<7;:&7;;2$<1",
"9,87=,,24<*6224:&6,4:442&<,6<>7:,6,2&;,4,,*<&#<,,5",
":O,q,q=8&7,=6,5,<*&89,77&9:2eO67;7@8#29,4,76,4,8:;",
"<,:7q95028&:890%6,:6,,@:46&6y#:*43#:,7w:74,94*,<2:",
"8:8:7::4,,#&:&72:4<6q&:4&<:222:4:7<2792@:7:44*7,28",
"9<<*&#462,:<&%7444;:q&46=9*24,287,2*,<<,76#<,<8,4,",
":*92=+6t;527#*#94&@,q<&&,&&76:75q94q9,#t2,7#0,o8,X",
"7:2&7,2,<#964;8<222,2q2,&4:,&7797<49:<58*27&7,&:&2",
"<<7&,:2<2::q<,#,,2,:787q&44,-2,6,:::9,228<4,4,8:2;",
"6,676,,:67,0,22,:t2:,6,*::-,77,,26&:9:448,X,24#2,,",
",28822&&,@6:2q,o,:&*99&:66,**6&%6,6=2028q,:8,&4740",
"6,8u,;7,;,326:&&--<O8@%=#8&4:*4,<828,7<t,7&,23q4<4",
"@&,6:,;,,2<:,&X@4<<20O*&,7-<<6,2;,:;<8e,,15092#:,:",
",8&6&&<=q7,:&,,&4&909#*&78<:86,r:@#q9,77,*5582@#;4",
"#9<:&:q7:69,tt,29q-87<%,,<-4-97&84:+@479;&2&4-&2:&",
";::5<:9q247,-8*266&296%<:<49#34*9,:#:2,,,,&644**,;",
":692#:&2<:22&93898&&,*@:7:47:453749&,,9:%,,,08*<<4",
"O,<*<7:69:90:;q9<282#:<9<294:,:258#4$484:=6&:<8&84",
"8<4q4;,67,,2,&=4#&#34q67:#2-,q:4<:#:227,=&6,6&5*24",
"6,&,7,7,>,2:,,@;,,,,:792;<:<5229,,,7,2411,,&&6=:6e",
",<:>26:,7<%9&<,7,<;,,e:,,48&w77,6:72q6,X-44=<4O,7<"
};