/* XPM */
static char *result[] = {
/* columns rows colors chars-per-pixel */
"50 50 197 2 ",
"   c #0E1900",
".  c #0D1500",
"X  c #181F09",
"o  c #162302",
"O  c #192402",
"+  c #1B2B01",
"@  c #192805",
"#  c #1C3300",
"$  c #153200",
"%  c #1E2812",
"&  c #222C0C",
"*  c #223401",
"=  c #253B01",
"-  c #293C04",
";  c #26340A",
":  c #2A350D",
">  c #2C3B0C",
",  c #202810",
"<  c #263215",
"1  c #2A3414",
"2  c #2E3B13",
"3  c #2B331C",
"4  c #323D1E",
"5  c #303D11",
"6  c #2B3220",
"7  c #363E28",
"8  c #264200",
"9  c #2C4202",
"0  c #2E4A00",
"q  c #2F420C",
"w  c #314505",
"e  c #324B02",
"r  c #32440D",
"t  c #38470E",
"y  c #354A0A",
"u  c #394E0C",
"i  c #365301",
"p  c #3A5504",
"a  c #3D5A04",
"s  c #3B540A",
"d  c #3E590B",
"f  c #344313",
"g  c #374812",
"h  c #3B4D14",
"j  c #33421A",
"k  c #39471D",
"l  c #3C4B1A",
"z  c #384517",
"x  c #3E5412",
"c  c #3F4B23",
"v  c #3C4629",
"b  c #3C4621",
"n  c #405D03",
"m  c #40570F",
"M  c #435D0C",
"N  c #415615",
"B  c #445B14",
"V  c #44551D",
"C  c #465B1B",
"Z  c #495D1C",
"A  c #446207",
"S  c #45620D",
"D  c #48660D",
"F  c #47680F",
"G  c #4D6C0D",
"H  c #53730E",
"J  c #466114",
"K  c #4A6514",
"L  c #4E6B13",
"P  c #4B631A",
"I  c #4E6A1A",
"U  c #516E14",
"Y  c #50671F",
"T  c #526D1B",
"R  c #547216",
"E  c #567913",
"W  c #55721C",
"Q  c #59761C",
"!  c #5C7A1D",
"~  c #414E23",
"^  c #455425",
"/  c #4C5D24",
"(  c #46562A",
")  c #4D5B2E",
"_  c #475628",
"`  c #414834",
"'  c #475332",
"]  c #4F5F30",
"[  c #51593B",
"{  c #4D6323",
"}  c #516724",
"|  c #536C23",
" . c #53642D",
".. c #55692D",
"X. c #586F29",
"o. c #567123",
"O. c #5A7524",
"+. c #5D7A24",
"@. c #5C742B",
"#. c #5E7A2B",
"$. c #4E6030",
"%. c #536335",
"&. c #5A6C33",
"*. c #5B6B3B",
"=. c #546338",
"-. c #5F7930",
";. c #5F7537",
":. c #617D24",
">. c #627D2A",
",. c #617634",
"<. c #647C34",
"1. c #697E3A",
"2. c #65793D",
"3. c #525C44",
"4. c #5C6947",
"5. c #636F4A",
"6. c #667848",
"7. c #6C7D4D",
"8. c #677A40",
"9. c #646D53",
"0. c #687050",
"q. c #69765A",
"w. c #6F7C5C",
"e. c #727D59",
"r. c #5E801E",
"t. c #62831E",
"y. c #5E8021",
"u. c #638225",
"i. c #698626",
"p. c #698925",
"a. c #65822B",
"s. c #69862C",
"d. c #6B8A2C",
"f. c #6E912B",
"g. c #6B9027",
"h. c #72932E",
"j. c #678330",
"k. c #698532",
"l. c #6D8B34",
"z. c #6C843A",
"x. c #6F8C3A",
"c. c #708737",
"v. c #708E35",
"b. c #718D39",
"n. c #71873E",
"m. c #739234",
"M. c #75923B",
"N. c #78953D",
"B. c #799939",
"V. c #6D8246",
"C. c #6F8847",
"Z. c #6F8049",
"A. c #738A42",
"S. c #74874F",
"D. c #788E4E",
"F. c #739040",
"G. c #7C934F",
"H. c #7B9943",
"J. c #758850",
"K. c #758559",
"L. c #7A8B5A",
"P. c #83965C",
"I. c #839A58",
"U. c #828F67",
"Y. c #828E6B",
"T. c #849463",
"R. c #84916A",
"E. c #8D9D74",
"W. c #8D977F",
"Q. c #8DA367",
"!. c #9DAD7C",
"~. c #959E89",
"^. c #9EAF84",
"/. c #9AA680",
"(. c #A3B583",
"). c #ACBC8F",
"_. c #A9BA87",
"`. c #A2AC91",
"'. c #A7B690",
"]. c #ADB69C",
"[. c #ABB992",
"{. c #B7C69C",
"}. c #B8C7A2",
"|. c #BBC4B0",
" X c #C3CFAA",
".X c #CCDBAF",
"XX c #CCD8B8",
"oX c #D3DDB8",
"OX c #D3E1BC",
"+X c #D8E2CA",
"@X c #E0ECC2",
"#X c #E4EDD8",
"$X c #EAF6D4",
"%X c #EBF5DA",
"&X c #F5FFE6",
"*X c #FBFFEC",
"=X c None",
/* pixels */
"=X=X=X=X=X=X=X=X=X=X=X=X=X=X=X=X=X=X=X=X=X=X=X=X=X=X=X=X=X=X=X=X=X=X=X=X=X=X=X=X=X=X=X=X=X=X=X=X=X=X",
"=X=X=X=X=X=X=X=X=X=X=X=X=X=X=X=X=X=X=X=X=X=X=X=X=X=X=X=X=X=X=X=X=X=X=X=X=X=X=X=X=X=X=X=X=X=X=X=X=X=X",
"=X=X=X=X=X=X=X=X=X=X=X=X=X=X=X=X=X=X=X=X=X=X=X=X=X=X=X=X=X=X=X=X=X=X=X=X=X=X=X=X=X=X=X=X=X=X=X=X=X=X",
"=X=X=X=X=X=X=X=X=X=X=X=X=X=X=X=X=X=X=X=X=X=X=X=X=X=X=X=X=X=X=X=X=X=X=X=X=X=X=X=X=X=X=X=X=X=X=X=X=X=X",
"=X=X=X=X=X=X=X=X=X=X=X=X=X=X=X=X=X=X=X=X=X=X=X=X=X=X=X=X=X=X=X=X=X=X=X=X=X=X=X=X=X=X=X=X=X=X=X=X=X=X",
"=X=X=X=X=X=X=X=X=X=X=X=X=X=X=X=X=X=X=X=X=X=X=X=X=X=X=X=X=X=X=X=X=X=X=X=X=X=X=X=X=X=X=X=X=X=X=X=X=X=X",
"=X=X=X=X=X=X=X=X=X=X=X=X=X=X=X=X=X=X=X=X=X=X=X=X=X=X=X=X=X=X=X=X=X=X=X=X=X=X=X=X=X=X=X=X=X=X=X=X=X=X",
"=X=X=X=X=X=X=X=X=X=X=X=X=X=X=X=X=X=X=X=X=X=X=X=X=X=X=X=X=X=X=X=X=X=X=X=X=X=X=X=X=X=X=X=X=X=X=X=X=X=X",
"=X=X=X=X=X=X=X=X=X=X=X=X=X=X=X=X=X=X=X+XXX].`.%X&X=X*X~.#X=X=X=X=X=X=X=X=X=X=X=X=X=X=X=X=X=X=X=X=X=X",
"=X=X=X=X=X=X=X=X=X=X=X=X=X=X=X=X$X).{.^.K.%.$.%.L.E.7.( =.^.}.oX=X=X=X=X=X=X=X=X=X=X=X=X=X=X=X=X=X=X",
"=X=X=X=X=X=X=X=X=X=X=X=X=X=X=XOX{.k.;.} @.P 8 u 9 <.B | G.A.I.Q.!.(.oX=X=X=X=X=X=X=X=X=X=X=X=X=X=X=X",
"=X=X=X=X=X=X=X=X=X=X=X=X$X}.}.Q.#.a.J y.F.k.x.+.L l.>.l.x.j.l.#.C.P.).{.=X=X=X=X=X=X=X=X=X=X=X=X=X=X",
"=X=X=X=X=X=X=X=X=X=X].R.T.J.C.<.o.s.x.M.+.a.F.k.a 0 T v.l.>.F x.S T G.P._.=X=X=X=X=X=X=X=X=X=X=X=X=X",
"=X=X=X=X=X=X=X=X=X=X X!.G.z.a.l.s.a.W L K S I M a #.k.F y.M.d.s.p.! K @.7.@X=X=X=X=X=X=X=X=X=X=X=X=X",
"=X=X=X=X=X=X=X=X=X=X).1.x.a.m.E p.Q a.a.+.+.+.o.y.o.S +.Q L u.p.h.t.i.b.z.8.oX=X=X=X=X=X=X=X=X=X=X=X",
"=X=X=X=X=X=X=X=X=X/.*.= 0 R H r.y.y.a W k.F.k.| j.x.v.k.d.i.R p.t.G m.v.A.,.7.XX=X=X=X=X=X=X=X=X=X=X",
"=X=X=X=X=X=X=X=X}.6.= B s a S S i S J y.k.F.F.z.x.x.y.a.y.L T M.m.v.m.v.k.#.A.7..X=X=X=X=X=X=X=X=X=X",
"=X=X=X=X=X=X=X=XL.g ;.} | o.O.+.k.j.H.| s y.p a.a.8 W L +.j.F a.M.M.j.F M.x.M @.L.=X=X=X=X=X=X=X=X=X",
"=X=X=X=X=X=X=X=X^ 2.;.X.9 d W x.k.W y.j.S i a i I o.W F i O.y.M.H.s.x.I 8 M.#.T S.'.=X=X=X=X=X=X=X=X",
"=X=X=X=X=X=X=X=X2.} B x | I T x.T k.#.I j.T T W W y.y.y.U A M.F y.J y.y.K a.T ,.N =X=X=X=X=X=X=X=X=X",
"=X=X=X=X=X=X=X .| d P | J #.0 0 0 0 W x.y.y.U L R a.f.v.r.y.A L 8 y.a.+.T $ j.P N =.=X=X=X=X=X=X=X=X",
"=X=X=X=X=X=XK.8.@.P B T o.J J a A a S o.k.y.+.W R ! M.y.y.y.Q D A y.o.y.M.F.k.o.w + q.=X=X=X=X=X=X=X",
"=X=X=X=X=X=X*.} >.O.T p K M +.#.+.S p d x.T a +.a d.v.H.v.y.r.! U a.j.k.F o.J x.{ - q.=X=X=X=X=X=X=X",
"=X=X=X=X=X'.O 1.K A T >.o.K #.#.F j.y.j.y.y.y.a.a.W +.T Q s.d.u.! F M.v.j.F L y.C.* ' =X=X=X=X=X=X=X",
"=X=X=X=X=X5.f @.>.n T K T K +.I X.:.>.>.Q >.i.>.l.d.>.O.v.s.d.M.d.i k.v.y.M.y.T z...j =X=X=X=X=X=X=X",
"=X=X=X=X=X5.g B T K <.>.J K +.K T X.T i 1.! d.>.M T W S 9 l.M.i.l.! +.u.F M.y.O.i G.( =X=X=X=X=X=X=X",
"=X=X=X=X=XY./ N <.>.O.@.P d i e Z B Q T i ! Q G K J k.J A 9 i :.y.W R L Q R g.L S y 7.=X=X=X=X=X=X=X",
"=X=X=X=X=X=X*.C <.P u 9 <.I +.T s c.O.:.U Q G E R W l.k.W M D N.s.i s.i.d.y.i g.s.w *.=X=X=X=X=X=X=X",
"=X=X=X=X=X=X) V N 9 - 9 X.O.>.n Y s T Q :.:.E Q O.:.k.M +.T ! R L ! i.l.u.r.E r.u.i J.=X=X=X=X=X=X=X",
"=X=X=X=X=X=Xb z h 9 # 9 B o.O.T M M K :.h.d.i.! U U T :.l.+.H ! E ! l.v.h.t.h.f.d.O.V.E.=X=X=X=X=X=X",
"=X=X=X=X=X=X[ ) l = q 9 } B U U m P a.Q p.p.! ! G M T c.a.u.! i.! G u.s.y.B.d.f.m.S V.E.=X=X=X=X=X=X",
"=X=X=X=X=X=X0.c l q g / s @.>.>.>.O.O.d.d.f.p.d.i.:.W n s.M.:.d.m.R W v.f.h.f.f.s.x.J.=X=X=X=X=X=X=X",
"=X=X=X=X=X=X' ' ~ - V N N * z.= <.- U K p i.i.d.d.s.# :.L x.b.:.k.M :.<.:.h.m.Q :.Z *.=X=X=X=X=X=X=X",
"=X=X=X=X=X=X=Xc ; z - V O 9 @.,.w m P c.c.:.U :.s.D >.z.o.9 s e >.W T D U n U M T & 0.=X=X=X=X=X=X=X",
"=X=X=X=X=X=X=X& O ; r N = 9 C C - = N 1.c.M l.T U p T m 9 s y d n.I T Q S U :.O.N * =X=X=X=X=X=X=X=X",
"=X=X=X=X=X=X=X=XO 2 > f r N { y h - u | P M W n M M Y B P P B P K m :.W ! T :.z./ *.=X=X=X=X=X=X=X=X",
"=X=X=X=X=X=X=X=Xo 4 ; : - / { y y g y B I O.K W K K I B P P { J I W M a.>.k.c.,.] e.=X=X=X=X=X=X=X=X",
"=X=X=X=X=X=X=X=X=X% b + + _ h l h h N B P B K B m S J d J X.P P p I T L o.T k.V.k =X=X=X=X=X=X=X=X=X",
"=X=X=X=X=X=X=X=X=X% @ 1 # $.g ^ * r - Z m P T i >.T | d } P B o.m m O.>.T <.n...e.=X=X=X=X=X=X=X=X=X",
"=X=X=X=X=X=X=X=X=X=X< % ; o > > 5 * - w w B z.- @.I P x x d X.e e T >.B Z x ,./ =X=X=X=X=X=X=X=X=X=X",
"=X=X=X=X=X=X=X=X=X=X`   & ; ; > : : - g - w x ,.N } Z N N N Z w y >.,.B N - &.*.=X=X=X=X=X=X=X=X=X=X",
"=X=X=X=X=X=X=X=X=X=X=X.   1 O ; : 2 ; V V w } N C } N u N N w w N } N g - O P.=X=X=X=X=X=X=X=X=X=X=X",
"=X=X=X=X=X=X=X=X=X=X=X6 % 7 1 ; : 5 > t h w w P Z Z Z - y m Y @./  .&.( k Y.5.=X=X=X=X=X=X=X=X=X=X=X",
"=X=X=X=X=X=X=X=X=X=X=X=X=X3 7 o : 5 > ~ h y N s m N N N Z Z ..Z  .=.( : =X=X=X=X=X=X=X=X=X=X=X=X=X=X",
"=X=X=X=X=X=X=X=X=X=X=X=X=X=X=XX 1 e.z z V / g l t  ./ N h C /  .*.5.v =X=X=X=X=X=X=X=X=X=X=X=X=X=X=X",
"=X=X=X=X=X=X=X=X=X=X=X=X=X=X=X=X=X=X[ v ~ ~ k ~ ~ l : + ~ ) ] =X=X=X=X=X=X=X=X=X=X=X=X=X=X=X=X=X=X=X",
"=X=X=X=X=X=X=X=X=X=X=X=X=X=X=X=X=X=X=X=X=X~.|.4.3.9.~.7 =X=X=X=X=X=X=X=X=X=X=X=X=X=X=X=X=X=X=X=X=X=X",
"=X=X=X=X=X=X=X=X=X=X=X=X=X=X=X=X=X=X=X=X=X=X=X=X=X=X=X=X=X=X=X=X=X=X=X=X=X=X=X=X=X=X=X=X=X=X=X=X=X=X",
"=X=X=X=X=X=X=X=X=X=X=X=X=X=X=X=X=X=X=X=X=X=X=X=X=X=X=X=X=X=X=X=X=X=X=X=X=X=X=X=X=X=X=X=X=X=X=X=X=X=X",
"=X=X=X=X=X=X=X=X=X=X=X=X=X=X=X=X=X=X=X=X=X=X=X=X=X=X=X=X=X=X=X=X=X=X=X=X=X=X=X=X=X=X=X=X=X=X=X=X=X=X"
};
