/* XPM */
static char *result[] = {
/* columns rows colors chars-per-pixel */
"50 50 175 2 ",
"   c #1C1314",
".  c #220E0F",
"X  c #3B0E0B",
"o  c #33100E",
"O  c #3E0F15",
"+  c #221615",
"@  c #241C1C",
"#  c #2A1D1C",
"$  c #351B1C",
"%  c #21201E",
"&  c #251F21",
"*  c #2B2425",
"=  c #292628",
"-  c #332525",
";  c #3D2B2B",
":  c #293439",
">  c #363433",
",  c #393836",
"<  c #3A3839",
"1  c #3A3438",
"2  c #4C0B0B",
"3  c #590100",
"4  c #5A0903",
"5  c #5C0C0D",
"6  c #40130E",
"7  c #481318",
"8  c #630000",
"9  c #6B0000",
"0  c #7E0607",
"q  c #750208",
"w  c #681F19",
"e  c #751619",
"r  c #5C2119",
"t  c #701E20",
"y  c #7E1A22",
"u  c #5E2B2A",
"i  c #403E3F",
"p  c #5F3930",
"a  c #503C3D",
"s  c #632027",
"d  c #6B2027",
"f  c #622827",
"g  c #782827",
"h  c #712529",
"j  c #6B3239",
"k  c #7E363A",
"l  c #4D4141",
"z  c #49434A",
"x  c #554444",
"c  c #555857",
"v  c #595454",
"b  c #624847",
"n  c #6E4A4C",
"m  c #774046",
"M  c #6B5D5D",
"N  c #795D5C",
"B  c #676565",
"V  c #786A6B",
"C  c #7A726F",
"Z  c #787276",
"A  c #850001",
"S  c #880D05",
"D  c #980000",
"F  c #860E11",
"G  c #980515",
"H  c #811014",
"J  c #941214",
"K  c #AD0D0F",
"L  c #BF000A",
"P  c #B7030C",
"I  c #B80B14",
"U  c #A8191B",
"Y  c #AA1517",
"T  c #B01511",
"R  c #BA1116",
"E  c #B9241E",
"W  c #9D1C21",
"Q  c #AA1E29",
"!  c #BB1521",
"~  c #862329",
"^  c #932027",
"/  c #902328",
"(  c #992D2B",
")  c #8C2C30",
"_  c #952735",
"`  c #8E3030",
"'  c #8F323D",
"]  c #963336",
"[  c #973739",
"{  c #96363A",
"}  c #A3242F",
"|  c #BB2424",
" . c #B72629",
".. c #BC252A",
"X. c #AC2935",
"o. c #B72E3B",
"O. c #A7363D",
"+. c #BC3234",
"@. c #BF323B",
"#. c #B53735",
"$. c #C40B13",
"%. c #D1131D",
"&. c #E01E1F",
"*. c #CA221F",
"=. c #CA1E2A",
"-. c #DB1C23",
";. c #DE1D2B",
":. c #D61A24",
">. c #DF1E31",
",. c #D11E31",
"<. c #E41E26",
"1. c #E71A29",
"2. c #EE1E2C",
"3. c #F11F2C",
"4. c #C62226",
"5. c #CF252C",
"6. c #D4262E",
"7. c #DB2029",
"8. c #D32926",
"9. c #C52B32",
"0. c #C32F38",
"q. c #CB2B37",
"w. c #D62630",
"e. c #DB2635",
"r. c #DD2A36",
"t. c #C83A39",
"y. c #C33134",
"u. c #D73037",
"i. c #E3242A",
"p. c #E9282D",
"a. c #E32335",
"s. c #E12933",
"d. c #F12232",
"f. c #9C3C40",
"g. c #AF3947",
"h. c #AC3342",
"j. c #B03D40",
"k. c #C43342",
"l. c #8D4145",
"z. c #954043",
"x. c #A04A49",
"c. c #816162",
"v. c #897069",
"b. c #837973",
"n. c #807A7C",
"m. c #A46961",
"M. c #B27779",
"N. c #C94C4A",
"B. c #C74C51",
"V. c #ED484C",
"C. c #D76F76",
"Z. c #887E89",
"A. c #FF7983",
"S. c #898B88",
"D. c #998881",
"F. c #9A8888",
"G. c #978889",
"H. c #93948F",
"J. c #9B9492",
"K. c #9E989A",
"L. c #A49C9D",
"P. c #A3979A",
"I. c #B29A93",
"U. c #ADA4A6",
"Y. c #B7A6A4",
"T. c #C29689",
"R. c #C79B9A",
"E. c #FF8E98",
"W. c #F49194",
"Q. c #FFA6AD",
"!. c #FFADB9",
"~. c #FFAAB3",
"^. c #D9D5D0",
"/. c #F7CAC7",
"(. c None",
/* pixels */
"(.(.(.(.(.(.(.(.(.(.(.(.(.(.(.(.(.(.(.(.(.(.(.(.(.(.(.(.(.(.(.(.(.(.(.(.(.(.(.(.(.(.(.(.(.(.(.(.(.(.",
"(.(.(.(.(.(.(.(.(.(.(.(.(.(.(.(.(.(.(.(.(.(.(.(.(.(.(.(.(.(.(.(.(.(.(.(.(.(.(.(.(.(.(.(.(.(.(.(.(.(.",
"(.(.(.(.(.(.(.(.(.(.(.(.(.(.(.(.(.(.(.(.(.(.(.(.(.(.(.(.(.(.(.(.(.(.(.(.(.(.(.(.(.(.(.(.(.(.(.(.(.(.",
"(.(.(.(.(.(.(.(.(.(.(.(.(.(.(.(.(.(.(.(.(.(.(.(.(.(.(.(.(.(.(.(.(.(.(.(.(.(.(.(.(.(.(.(.(.(.(.(.(.(.",
"(.(.(.(.(.(.(.(.(.(.(.(.(.(.(.(.(.(.(.(.(.(.(.(.(.(.(.(.(.(.(.(.(.(.(.(.(.(.(.(.(.(.(.(.(.(.(.(.(.(.",
"(.(.(.(.(.(.(.(.(.(.(.(.(.(.(.(.(.(.(.(.(.(.(.(.(.(.(.(.(.(.(.(.(.(.(.(.(.(.(.(.(.(.(.(.(.(.(.(.(.(.",
"(.(.(.(.(.(.(.(.(.(.(.(.(.(.(.(.(.(.(.(.(.(.(.(.(.(.(.(.(.(.(.(.(.(.(.(.(.(.(.(.(.(.(.(.(.(.(.(.(.(.",
"(.(.(.(.(.(.(.(.(.(.(.(.(.(.(.(.(.(.(.(.(.(.(.(.(.(.(.(.(.(.(.(.(.(.(.(.(.(.(.(.(.(.(.(.(.(.(.(.(.(.",
"(.(.(.(.(.(.(.(.(.(.(.(.(.(.(.(.(.(.(.(.(.(.(.(.(.(.(.(.(.(.(.(.(.(.(.(.(.(.(.(.(.(.(.(.(.(.(.(.(.(.",
"(.(.(.(.(.(.(.(.(.(.(.(.(.(.(.(.(.(.(.(.(.(.(.(.(.(.(.(.(.(.(.(.(.(.(.(.(.(.(.(.(.(.(.(.(.(.(.(.(.(.",
"(.(.(.(.(.(.(.(.(.(.(.(.(.(.(.(.(.(.(.(.(.(.(.(.(.(.(.(.(.(.(.(.(.(.(.(.(.(.(.(.(.(.(.(.(.(.(.(.(.(.",
"(.(.(.(.(.(.(.(.(.(.(.(.(.(.(.(.(.(.(.(.(.(.(.(.(.(.(.(.(.m (.(.(.(.(.(.(.(.(.(.(.(.(.(.(.(.(.(.(.(.",
"(.(.(.(.(.(.(.(.(.(.(.(.(.(.(.(.(.(.(.(.(.(.(.(.(.(.(.(._ h.(.(.f.(.(.(.(.(.(.(.(.(.(.(.(.(.(.(.(.(.",
"(.(.(.(.(.(.(.(.(.(.(.(.(.(.(.(.(.(.(.n p r ` ] d j (.` X.k.(.] g.~ (.(.(.(.(.(.(.(.(.(.(.(.(.(.(.(.",
"(.(.(.(.(.(.(.(.(.(.(.(.(.(.(.(.(.(.5 / #.~.~.!.A.B.~ e O.Q Y y.o.(.(.(.(.(.(.(.(.(.(.(.(.(.(.(.(.(.",
"(.(.(.(.(.(.(.(.(.(.(.(.(.(.(.(.(.f [ #.@.0.9.q.6.V.t.N.q J 6.w.} e (.(.(.(.(.(.(.(.(.(.(.(.(.(.(.(.",
"(.(.(.(.(.(.(.(.(.(.(.(.(.(.(.(.O s 5 3 0  .6.i.i.*.8...S 9.r.w.G f.(.(.(.(.(.(.(.(.(.(.(.(.(.(.(.(.",
"(.(.(.(.(.(.(.(.(.(.(.(.(.(.(.a 7 (.(.(.x.0 R p.&.p.4.D 4.6.e.! @.) (.(.(.(.(.(.(.(.(.(.(.(.(.(.(.(.",
"(.(.(.(.(.(.(.(.(.(.(.(.(.(.(.+ Y.(.(.(.(.t A 6.i.%.T R s.a.I ! X.{ (.(.(.(.(.(.(.(.(.(.(.(.(.(.(.(.",
"(.(.(.(.(.(.(.(.(.(.(.(.(.(.G.C (.(.(.(.(.(.8 U 7.i.R =.a.>.4.#.H (.(.(.(.(.(.(.(.(.(.(.(.(.(.(.(.(.",
"(.(.(.(.(.(.(.(.(.(.(.(.(.(.  (.(.(.(.(.(.(.l.F w.$.a.i.>.e.E S { (.(.(.(.(.(.(.(.(.(.(.(.(.(.(.(.(.",
"(.(.(.(.(.(.(.(.(.(.(.(.(.(.- (.(.(.(.(.Z.(.M.8 9.%.1.3.:.P T #.f.(.(.(.(.(.(.(.(.(.(.(.(.(.(.(.(.(.",
"(.(.(.(.(.(.(.(.(.(.(.(.(.(.- l K.(.(.Z * F./.3 9.$.i.1.d.1.s.@.g c.^.(.(.(.(.(.(.(.(.(.(.(.(.(.(.(.",
"(.(.(.(.(.(.(.(.(.(.(.(.(.P.M + @ (.c * @ D.(.4 ..-.<.i.-.6.0.W 7 x H.(.(.(.(.(.(.(.(.(.(.(.(.(.(.(.",
"(.(.(.(.(.(.(.(.(.(.(.(.(.U.x v % S., @ # I.(.4 ..-.2.;.y.( w 6 b (.(.(.(.(.(.(.(.(.(.(.(.(.(.(.(.(.",
"(.(.(.(.(.(.(.(.(.(.(.(.(.(.- (.(.(.(.- b.(.T.3 9.a.e.0.(.(.v.b.(.(.(.(.(.(.(.(.(.(.(.(.(.(.(.(.(.(.",
"(.(.(.(.(.(.(.(.(.(.(.(.(.(.# (.(.(.(.(.(.(.m.9 9.q.C.(.(.(.C (.(.(.(.(.(.(.(.(.(.(.(.(.(.(.(.(.(.(.",
"(.(.(.(.(.(.(.(.(.(.(.(.(.(.# L.(.(.(.(.(.(.g F @.E.(.(.(.(.= (.(.(.(.(.(.(.(.(.(.(.(.(.(.(.(.(.(.(.",
"(.(.(.(.(.(.(.(.(.(.(.(.(.(.J.l (.(.(.(.(.(.8 _ W.(.(.(.(.(.(.(.(.(.(.(.(.(.(.(.(.(.(.(.(.(.(.(.(.(.",
"(.(.(.(.(.(.(.(.(.(.(.(.(.(.(.+ F.(.(.(.(.f q h.(.(.(.(.(.: (.(.(.(.(.(.(.(.(.(.(.(.(.(.(.(.(.(.(.(.",
"(.(.(.(.(.(.(.(.(.(.(.(.(.(.(.(.+ N R.R.2 5 y (.(.(.(.(.z (.(.(.(.(.(.(.(.(.(.(.(.(.(.(.(.(.(.(.(.(.",
"(.(.(.(.(.(.(.(.(.(.(.(.(.(.(.(.Y.$ o X 2 2 2 (.(.(.c 1 & (.(.(.(.(.(.(.(.(.(.(.(.(.(.(.(.(.(.(.(.(.",
"(.(.(.(.(.(.(.(.(.(.(.(.(.(.(.(.(.(.# ; # $ $ V * , v (.= (.(.(.(.(.(.(.(.(.(.(.(.(.(.(.(.(.(.(.(.(.",
"(.(.(.(.(.(.(.(.(.(.(.(.(.(.(.(.(.(.* (.Z V (.(.(.(.> (.(.= (.(.(.(.(.(.(.(.(.(.(.(.(.(.(.(.(.(.(.(.",
"(.(.(.(.(.(.(.(.(.(.(.(.(.(.(.(.(.(.< = U.* K.(.(.(.B i (.(.(.(.(.(.(.(.(.(.(.(.(.(.(.(.(.(.(.(.(.(.",
"(.(.(.(.(.(.(.(.(.(.(.(.(.(.(.(.(.(.(.B (.L.  (.(.(.(.(.(.(.(.(.(.(.(.(.(.(.(.(.(.(.(.(.(.(.(.(.(.(.",
"(.(.(.(.(.(.(.(.(.(.(.(.(.(.(.(.(.(.(.(.(.(.(.(.(.(.(.(.(.(.(.(.(.(.(.(.(.(.(.(.(.(.(.(.(.(.(.(.(.(.",
"(.(.(.(.(.(.(.(.(.(.(.(.(.(.(.(.(.(.(.(.(.(.(.(.(.(.(.(.(.(.(.(.(.(.(.(.(.(.(.(.(.(.(.(.(.(.(.(.(.(.",
"(.(.(.(.(.(.(.(.(.(.(.(.(.(.(.(.(.(.(.(.(.(.(.(.(.(.(.(.(.(.(.(.(.(.(.(.(.(.(.(.(.(.(.(.(.(.(.(.(.(.",
"(.(.(.(.(.(.(.(.(.(.(.(.(.(.(.(.(.(.(.(.(.(.(.(.(.(.(.(.(.(.(.(.(.(.(.(.(.(.(.(.(.(.(.(.(.(.(.(.(.(.",
"(.(.(.(.(.(.(.(.(.(.(.(.(.(.(.(.(.(.(.(.(.(.(.(.(.(.(.(.(.(.(.(.(.(.(.(.(.(.(.(.(.(.(.(.(.(.(.(.(.(.",
"(.(.(.(.(.(.(.(.(.(.(.(.(.(.(.(.(.(.(.(.(.(.(.(.(.(.(.(.(.(.(.(.(.(.(.(.(.(.(.(.(.(.(.(.(.(.(.(.(.(.",
"(.(.(.(.(.(.(.(.(.(.(.(.(.(.(.(.(.(.(.(.(.(.(.(.(.(.(.(.(.(.(.(.(.(.(.(.(.(.(.(.(.(.(.(.(.(.(.(.(.(.",
"(.(.(.(.(.(.(.(.(.(.(.(.(.(.(.(.(.(.(.(.(.(.(.(.(.(.(.(.(.(.(.(.(.(.(.(.(.(.(.(.(.(.(.(.(.(.(.(.(.(.",
"(.(.(.(.(.(.(.(.(.(.(.(.(.(.(.(.(.(.(.(.(.(.(.(.(.(.(.(.(.(.(.(.(.(.(.(.(.(.(.(.(.(.(.(.(.(.(.(.(.(.",
"(.(.(.(.(.(.(.(.(.(.(.(.(.(.(.(.(.(.(.(.(.(.(.(.(.(.(.(.(.(.(.(.(.(.(.(.(.(.(.(.(.(.(.(.(.(.(.(.(.(.",
"(.(.(.(.(.(.(.(.(.(.(.(.(.(.(.(.(.(.(.(.(.(.(.(.(.(.(.(.(.(.(.(.(.(.(.(.(.(.(.(.(.(.(.(.(.(.(.(.(.(.",
"(.(.(.(.(.(.(.(.(.(.(.(.(.(.(.(.(.(.(.(.(.(.(.(.(.(.(.(.(.(.(.(.(.(.(.(.(.(.(.(.(.(.(.(.(.(.(.(.(.(.",
"(.(.(.(.(.(.(.(.(.(.(.(.(.(.(.(.(.(.(.(.(.(.(.(.(.(.(.(.(.(.(.(.(.(.(.(.(.(.(.(.(.(.(.(.(.(.(.(.(.(.",
"(.(.(.(.(.(.(.(.(.(.(.(.(.(.(.(.(.(.(.(.(.(.(.(.(.(.(.(.(.(.(.(.(.(.(.(.(.(.(.(.(.(.(.(.(.(.(.(.(.(."
};
