/* XPM */
static char *result[] = {
/* columns rows colors chars-per-pixel */
"50 50 217 2 ",
"   c #1E1412",
".  c #1E181A",
"X  c #240F0E",
"o  c #360E0C",
"O  c #231717",
"+  c #241818",
"@  c #261818",
"#  c #28191A",
"$  c #2A1A1A",
"%  c #2B1B1B",
"&  c #281C1C",
"*  c #2C1E1E",
"=  c #3B1313",
"-  c #30171A",
";  c #371B18",
":  c #341A1A",
">  c #341B1B",
",  c #3B181E",
"<  c #1F2217",
"1  c #1C261B",
"2  c #1F1D24",
"3  c #231F20",
"4  c #241E20",
"5  c #261A24",
"6  c #2A1D24",
"7  c #291E24",
"8  c #232126",
"9  c #2B2122",
"0  c #272028",
"q  c #292729",
"w  c #2A2728",
"e  c #2E282C",
"r  c #2C2C2C",
"t  c #332525",
"y  c #352727",
"u  c #3E2A2B",
"i  c #3D3435",
"p  c #37303E",
"a  c #3B383A",
"s  c #480808",
"d  c #4C0B0A",
"f  c #4A0D0A",
"g  c #4A0E0E",
"h  c #4F0F0F",
"j  c #5B0000",
"k  c #5D0401",
"l  c #590B0B",
"z  c #42100F",
"x  c #400D12",
"c  c #580D11",
"v  c #500F1B",
"b  c #411417",
"n  c #491114",
"m  c #610000",
"M  c #640702",
"N  c #600107",
"B  c #6A0000",
"V  c #6B0001",
"C  c #6C0000",
"Z  c #780009",
"A  c #610D15",
"S  c #731D1F",
"D  c #7C1C1D",
"F  c #4F1720",
"G  c #731F2C",
"H  c #582222",
"J  c #5F2524",
"K  c #5A2D27",
"L  c #4B3738",
"P  c #473C3C",
"I  c #682627",
"U  c #7C2023",
"Y  c #722328",
"T  c #7E232A",
"R  c #692031",
"E  c #793949",
"W  c #3E4040",
"Q  c #444643",
"!  c #4E4245",
"~  c #504442",
"^  c #5B4C47",
"/  c #564848",
"(  c #5C5451",
")  c #5F5B5B",
"_  c #774651",
"`  c #6A5C5C",
"'  c #795B58",
"]  c #646163",
"[  c #786868",
"{  c #74706F",
"}  c #787178",
"|  c #8B0000",
" . c #80020A",
".. c #80040F",
"X. c #900C0A",
"o. c #860D16",
"O. c #8B1718",
"+. c #951A1D",
"@. c #B61213",
"#. c #B71216",
"$. c #B31218",
"%. c #851D26",
"&. c #842626",
"*. c #8A2722",
"=. c #8B272E",
"-. c #8D2D2F",
";. c #91212F",
":. c #882732",
">. c #892A32",
",. c #892C3F",
"<. c #9E2F36",
"1. c #98343E",
"2. c #AE2829",
"3. c #B6272B",
"4. c #BF242A",
"5. c #B8252F",
"6. c #BC2E2D",
"7. c #A82130",
"8. c #BE2D32",
"9. c #B92839",
"0. c #B83336",
"q. c #B6333D",
"w. c #E71B1C",
"e. c #CA1D23",
"r. c #D71F21",
"t. c #DF1D25",
"y. c #D71D2B",
"u. c #DF1C2A",
"i. c #E91722",
"p. c #E31F21",
"a. c #E71C20",
"s. c #E31B25",
"d. c #E71925",
"f. c #E01C26",
"g. c #E41F26",
"h. c #E91A20",
"j. c #EE1B22",
"k. c #ED1F23",
"l. c #E91926",
"z. c #EB1926",
"x. c #ED1925",
"c. c #EC1826",
"v. c #EE1A26",
"b. c #EB1E25",
"n. c #EC1D27",
"m. c #E11F28",
"M. c #E41F28",
"N. c #E71F2A",
"B. c #ED1F29",
"V. c #ED1D2A",
"C. c #ED1D2B",
"Z. c #EC1E2A",
"A. c #EE1F2F",
"S. c #F11B27",
"D. c #F11E25",
"F. c #F01C28",
"G. c #C82129",
"H. c #CE242D",
"J. c #CA2A2A",
"K. c #C92F2D",
"L. c #D82125",
"P. c #DC2424",
"I. c #D3222A",
"U. c #D4232B",
"Y. c #D4242F",
"T. c #D6252F",
"R. c #D6272E",
"E. c #DC232B",
"W. c #D7292B",
"Q. c #D02A2C",
"!. c #D5282C",
"~. c #C72731",
"^. c #C22B30",
"/. c #C32E30",
"(. c #C92C33",
"). c #CE2D32",
"_. c #C62F3B",
"`. c #C02D3D",
"'. c #D92330",
"]. c #DC2730",
"[. c #D42A37",
"{. c #DB2C33",
"}. c #C13238",
"|. c #C2303A",
" X c #C6303C",
".X c #E42024",
"XX c #E32624",
"oX c #E5222A",
"OX c #EE222B",
"+X c #ED2528",
"@X c #8E403D",
"#X c #952E41",
"$X c #8A374B",
"%X c #A83440",
"&X c #B53041",
"*X c #B33945",
"=X c #C12E41",
"-X c #BC5256",
";X c #885B60",
":X c #976C76",
">X c #A7717E",
",X c #D5515E",
"<X c #F74555",
"1X c #FC6E7C",
"2X c #958286",
"3X c #9E888B",
"4X c #959593",
"5X c #AC8685",
"6X c #B4858F",
"7X c #B18D8D",
"8X c #AF9B9D",
"9X c #CCBBC0",
"0X c #C8D2CA",
"qX c #DCD8D7",
"wX c #EED0D2",
"eX c #FFF9FD",
"rX c None",
/* pixels */
"rXrXrXrXrXrXrXrXrXrXrXrXrXrXrXrXrXrXrXrXrXrXrXrXrXrXrXrXrXrXrXrXrXrXrXrXrXrXrXrXrXrXrXrXrXrXrXrXrXrX",
"rXrXrXrXrXrXrXrXrXrXrXrXrXrXrXrXrXrXrXrXrXrXrXrXrXrXrXrXrXrXrXrXrXrXrXrXrXrXrXrXrXrXrXrXrXrXrXrXrXrX",
"rXrXrXrXrXrXrXrXrXrXrXrXrXrXrXrXrXrXrXrXrXrXrXrXrXrXrXrXrXrXrXrXrXrXrXrXrXrXrXrXrXrXrXrXrXrXrXrXrXrX",
"rXrXrXrXrXrXrXrXrXrXrXrXrXrXrXrXrXrXrXrXrXrXrXrXrXrXrXrXrXrXrXrXrXrXrXrXrXrXrXrXrXrXrXrXrXrXrXrXrXrX",
"rXrXrXrXrXrXrXrXrXrXrXrXrXrXrXrXrXrXrXrXrXrXrXrXrXrXrXrXrXrXrXrXrXrXrXrXrXrXrXrXrXrXrXrXrXrXrXrXrXrX",
"rXrXrXrXrXrXrXrXrXrXrXrXrXrXrXrXrXrXrXrXrXrXrXrXrXrXrXrXrXrXrXrXrXrXrXrXrXrXrXrXrXrXrXrXrXrXrXrXrXrX",
"rXrXrXrXrXrXrXrXrXrXrXrXrXrXrXrXrXrXrXrXrXrXrXrXrXrXrXrXrXrXrXrXrXrXrXrXrXrXrXrXrXrXrXrXrXrXrXrXrXrX",
"rXrXrXrXrXrXrXrXrXrXrXrXrXrXrXrXrXrXrXrXrXrXrXrXrXrXrXrXrXrXrXrXrXrXrXrXrXrXrXrXrXrXrXrXrXrXrXrXrXrX",
"rXrXrXrXrXrXrXrXrXrXrXrXrXrXrXrXrXrXrXrXrXrXrXrXrXrXrXrXrXrXrXrXrXrXrXrXrXrXrXrXrXrXrXrXrXrXrXrXrXrX",
"rXrXrXrXrXrXrXrXrXrXrXrXrXrXrXrXrXrXrXrXrXrXrXrXrXrXrXrXrXrXrXrXrXrXrXrXrXrXrXrXrXrXrXrXrXrXrXrXrXrX",
"rXrXrXrXrXrXrXrXrXrXrXrXrXrXrXrXrXrXrXrXrXrXrXrXrXrXrXrXrXrXrXrXrXrXrXrXrXrXrXrXrXrXrXrXrXrXrXrXrXrX",
"rXrXrXrXrXrXrXrXrXrXrXrXrXrXrXrXrXrXrXrXrXrXrXrXrXrXrXrXrXrXrXrXrXrXrXrXrXrXrXrXrXrXrXrXrXrXrXrXrXrX",
"rXrXrXrXrXrXrXrXrXrXrXrXrXrXrXrXrXrXrXrXrXrXrXrXrXrXrXrXrXrXrXrXrXrXrXrXrXrXrXrXrXrXrXrXrXrXrXrXrXrX",
"rXrXrXrXrXrXrXrXrXrXrXrXrXrXrXrXrXrXrXrXrXrXrXrXrXrXrXrXrXrXrXrXrXrXrXrXrXrXrXrXrXrXrXrXrXrXrXrXrXrX",
"rXrXrXrXrXrXrXrXrXrXrXrXrXrXrXrXrXrXA ;.*XrXrXrX1X,X=.rXrXrXrXrXrXrXrXrXrXrXrXrXrXrXrXrXrXrXrXrXrXrX",
"rXrXrXrXrXrXrXrXrXrXrXrXrXrXrXrXrXK 1.&X`._.^.).'.<X X-XrXrXrXrXrXrXrXrXrXrXrXrXrXrXrXrXrXrXrXrXrXrX",
"rXrXrXrXrXrXrXrXrXrXrXrXrXrXrXrX= J c N ..5.Q.P..XoXI.8.*.rXrXrXrXrXrXrXrXrXrXrXrXrXrXrXrXrXrXrXrXrX",
"rXrXrXrXrXrXrXrXrXrXrXrXrXrXrXL b rXrXrXrX .@.XXw.k.M.R.6.&.rXrXrXrXrXrXrXrXrXrXrXrXrXrXrXrXrXrXrXrX",
"rXrXrXrXrXrXrXrXrXrXrXrXrXrXrX# rXrXrXrXrXS | L.a.D.n.f.{.+.5XrXrXrXrXrXrXrXrXrXrXrXrXrXrXrXrXrXrXrX",
"rXrXrXrXrXrXrXrXrXrXrXrXrXrXrX[ rXrXrXrXrXrXC #.g.j.v.d.m.}.H rXrXrXrXrXrXrXrXrXrXrXrXrXrXrXrXrXrXrX",
"rXrXrXrXrXrXrXrXrXrXrXrXrXrX+ rXrXrXrXrXrXrX@XX.E.i.n.OXs.(.Y wXrXrXrXrXrXrXrXrXrXrXrXrXrXrXrXrXrXrX",
"rXrXrXrXrXrXrXrXrXrXrXrXrXrX* rXrXrXrXrXrXrXrXC T.V.l.B.Z.G.>.;X3XeXrXrXrXrXrXrXrXrXrXrXrXrXrXrXrXrX",
"rXrXrXrXrXrXrXrXrXrXrXrXrXrXt ~ rXrXrX} 0 rXrXm H.A.z.c.F.Y.%.x 8X{ qXrXrXrXrXrXrXrXrXrXrXrXrXrXrXrX",
"rXrXrXrXrXrXrXrXrXrXrXrXrXrX`   < rX) 7 5 rXrXM 4.u.C.S.v.U.<.n % Q 4XrXrXrXrXrXrXrXrXrXrXrXrXrXrXrX",
"rXrXrXrXrXrXrXrXrXrXrXrXrXrX/ ( 1 rXi 6 8 rXrXk 2.e.N.x.h.W.O.h ^ 0XrXrXrXrXrXrXrXrXrXrXrXrXrXrXrXrX",
"rXrXrXrXrXrXrXrXrXrXrXrXrXrXy rXrXrXrXe rXrXrXj 0.$.].t.+Xr.3.U 7XrXrXrXrXrXrXrXrXrXrXrXrXrXrXrXrXrX",
"rXrXrXrXrXrXrXrXrXrXrXrXrXrX@ rXrXrXrXrXrXrXrXV |.~./.J.p.b.y.9.G 6XrXrXrXrXrXrXrXrXrXrXrXrXrXrXrXrX",
"rXrXrXrXrXrXrXrXrXrXrXrXrXrX& rXrXrXrXrXrXrXT o.q.rXrXrXK.!.[.=X#XR >XrXrXrXrXrXrXrXrXrXrXrXrXrXrXrX",
"rXrXrXrXrXrXrXrXrXrXrXrXrXrXrX! rXrXrXrXrXrXB 7.rXrXrXrXrXrX-.:.,.$XE :XrXrXrXrXrXrXrXrXrXrXrXrXrXrX",
"rXrXrXrXrXrXrXrXrXrXrXrXrXrXrXO 2XrXrXrXrXI Z %XrXrXrXrXrXrXrXF v rX_ , 9XrXrXrXrXrXrXrXrXrXrXrXrXrX",
"rXrXrXrXrXrXrXrXrXrXrXrXrXrXrXrXX ' rXrXf l D rXrXrXrXrXP rXrXrXrXrXrXrXrXrXrXrXrXrXrXrXrXrXrXrXrXrX",
"rXrXrXrXrXrXrXrXrXrXrXrXrXrXrXrXrX; o z g s d rXrXrXrXp 2 rXrXrXrXrXrXrXrXrXrXrXrXrXrXrXrXrXrXrXrXrX",
"rXrXrXrXrXrXrXrXrXrXrXrXrXrXrXrXrXrX$ u - > : rX9 rXrXrXq rXrXrXrXrXrXrXrXrXrXrXrXrXrXrXrXrXrXrXrXrX",
"rXrXrXrXrXrXrXrXrXrXrXrXrXrXrXrXrXrX3 rXrXrXrXrXrXrXrXrXrXr W rXrXrXrXrXrXrXrXrXrXrXrXrXrXrXrXrXrXrX",
"rXrXrXrXrXrXrXrXrXrXrXrXrXrXrXrXrXrXa w rX4 rXrXrXrXrXrXrXrXrXrXrXrXrXrXrXrXrXrXrXrXrXrXrXrXrXrXrXrX",
"rXrXrXrXrXrXrXrXrXrXrXrXrXrXrXrXrXrXrX] rXrX. rXrXrXrXrXrXrXrXrXrXrXrXrXrXrXrXrXrXrXrXrXrXrXrXrXrXrX",
"rXrXrXrXrXrXrXrXrXrXrXrXrXrXrXrXrXrXrXrXrXrXrXrXrXrXrXrXrXrXrXrXrXrXrXrXrXrXrXrXrXrXrXrXrXrXrXrXrXrX",
"rXrXrXrXrXrXrXrXrXrXrXrXrXrXrXrXrXrXrXrXrXrXrXrXrXrXrXrXrXrXrXrXrXrXrXrXrXrXrXrXrXrXrXrXrXrXrXrXrXrX",
"rXrXrXrXrXrXrXrXrXrXrXrXrXrXrXrXrXrXrXrXrXrXrXrXrXrXrXrXrXrXrXrXrXrXrXrXrXrXrXrXrXrXrXrXrXrXrXrXrXrX",
"rXrXrXrXrXrXrXrXrXrXrXrXrXrXrXrXrXrXrXrXrXrXrXrXrXrXrXrXrXrXrXrXrXrXrXrXrXrXrXrXrXrXrXrXrXrXrXrXrXrX",
"rXrXrXrXrXrXrXrXrXrXrXrXrXrXrXrXrXrXrXrXrXrXrXrXrXrXrXrXrXrXrXrXrXrXrXrXrXrXrXrXrXrXrXrXrXrXrXrXrXrX",
"rXrXrXrXrXrXrXrXrXrXrXrXrXrXrXrXrXrXrXrXrXrXrXrXrXrXrXrXrXrXrXrXrXrXrXrXrXrXrXrXrXrXrXrXrXrXrXrXrXrX",
"rXrXrXrXrXrXrXrXrXrXrXrXrXrXrXrXrXrXrXrXrXrXrXrXrXrXrXrXrXrXrXrXrXrXrXrXrXrXrXrXrXrXrXrXrXrXrXrXrXrX",
"rXrXrXrXrXrXrXrXrXrXrXrXrXrXrXrXrXrXrXrXrXrXrXrXrXrXrXrXrXrXrXrXrXrXrXrXrXrXrXrXrXrXrXrXrXrXrXrXrXrX",
"rXrXrXrXrXrXrXrXrXrXrXrXrXrXrXrXrXrXrXrXrXrXrXrXrXrXrXrXrXrXrXrXrXrXrXrXrXrXrXrXrXrXrXrXrXrXrXrXrXrX",
"rXrXrXrXrXrXrXrXrXrXrXrXrXrXrXrXrXrXrXrXrXrXrXrXrXrXrXrXrXrXrXrXrXrXrXrXrXrXrXrXrXrXrXrXrXrXrXrXrXrX",
"rXrXrXrXrXrXrXrXrXrXrXrXrXrXrXrXrXrXrXrXrXrXrXrXrXrXrXrXrXrXrXrXrXrXrXrXrXrXrXrXrXrXrXrXrXrXrXrXrXrX",
"rXrXrXrXrXrXrXrXrXrXrXrXrXrXrXrXrXrXrXrXrXrXrXrXrXrXrXrXrXrXrXrXrXrXrXrXrXrXrXrXrXrXrXrXrXrXrXrXrXrX",
"rXrXrXrXrXrXrXrXrXrXrXrXrXrXrXrXrXrXrXrXrXrXrXrXrXrXrXrXrXrXrXrXrXrXrXrXrXrXrXrXrXrXrXrXrXrXrXrXrXrX",
"rXrXrXrXrXrXrXrXrXrXrXrXrXrXrXrXrXrXrXrXrXrXrXrXrXrXrXrXrXrXrXrXrXrXrXrXrXrXrXrXrXrXrXrXrXrXrXrXrXrX"
};
