/* XPM */
static char *result[] = {
/* columns rows colors chars-per-pixel */
"50 50 252 2 ",
"   c #1D1111",
".  c #220E0F",
"X  c #3A0E0D",
"o  c #30110E",
"O  c #2E0F14",
"+  c #231514",
"@  c #201614",
"#  c #231717",
"$  c #2B1316",
"%  c #271718",
"&  c #261818",
"*  c #251E18",
"=  c #241F1C",
"-  c #281C1C",
";  c #311E17",
":  c #3C1A15",
">  c #361418",
",  c #3F1519",
"<  c #371F1D",
"1  c #232019",
"2  c #1A1F23",
"3  c #221D21",
"4  c #2E1E20",
"5  c #1D2225",
"6  c #232227",
"7  c #292023",
"8  c #2B2222",
"9  c #2F2121",
"0  c #21242B",
"q  c #312323",
"w  c #342626",
"e  c #3A2220",
"r  c #30252B",
"t  c #30272A",
"y  c #3B2B2B",
"u  c #3D2C2C",
"i  c #3C3636",
"p  c #49090A",
"a  c #4A0B0B",
"s  c #480E0D",
"d  c #5D0000",
"f  c #5E0501",
"g  c #5D0106",
"h  c #550D0E",
"j  c #40100E",
"k  c #400D16",
"l  c #490E10",
"z  c #570C10",
"x  c #5F0C14",
"c  c #421414",
"v  c #421E1E",
"b  c #5F1F1F",
"n  c #600000",
"m  c #630000",
"M  c #620702",
"N  c #600005",
"B  c #690003",
"V  c #6D0000",
"C  c #6C020E",
"Z  c #79140C",
"A  c #6F0A18",
"S  c #56231F",
"D  c #7B201F",
"F  c #691B29",
"G  c #771E20",
"H  c #432224",
"J  c #5E2C25",
"K  c #5C2D27",
"L  c #463133",
"P  c #403335",
"I  c #503C3B",
"U  c #632220",
"Y  c #6C2022",
"T  c #6C2024",
"R  c #622829",
"E  c #642A29",
"W  c #682C2B",
"Q  c #762126",
"!  c #7B262E",
"~  c #612A30",
"^  c #653533",
"/  c #783932",
"(  c #743939",
")  c #3E4945",
"_  c #4E4040",
"`  c #4C4243",
"'  c #4D4D45",
"]  c #554747",
"[  c #5D5250",
"{  c #585D5B",
"}  c #6B4C49",
"|  c #6B5D5D",
" . c #775D5C",
".. c #6A7571",
"X. c #787370",
"o. c #707579",
"O. c #7C7A7C",
"+. c #800001",
"@. c #83010D",
"#. c #8B0E0A",
"$. c #820211",
"%. c #800E18",
"&. c #85171A",
"*. c #871A1A",
"=. c #941816",
"-. c #99111B",
";. c #99181C",
":. c #B80D1F",
">. c #A91A16",
",. c #B81118",
"<. c #BB221D",
"1. c #8E0E25",
"2. c #871B2A",
"3. c #8B1B29",
"4. c #9F1721",
"5. c #A1162B",
"6. c #842624",
"7. c #8E2522",
"8. c #8B272F",
"9. c #842928",
"0. c #91212F",
"q. c #8F2732",
"w. c #882134",
"e. c #9A2734",
"r. c #843437",
"t. c #8A353A",
"y. c #97333B",
"u. c #93343C",
"i. c #90363F",
"p. c #BB2028",
"a. c #BF262B",
"s. c #BC2A2D",
"d. c #A82A36",
"f. c #A72338",
"g. c #AE2E3D",
"h. c #BE2230",
"j. c #BF2932",
"k. c #BD2B38",
"l. c #BA3337",
"z. c #BD3734",
"x. c #C40819",
"c. c #CA1C1E",
"v. c #CF1C20",
"b. c #CE1E29",
"n. c #DC1929",
"m. c #DC1E28",
"M. c #E41B21",
"N. c #E41B23",
"B. c #E01F22",
"V. c #E71C22",
"C. c #E11C26",
"Z. c #E71E24",
"A. c #E51C26",
"S. c #E81921",
"D. c #EA1821",
"F. c #E81A24",
"G. c #E81F25",
"H. c #EA1F25",
"J. c #E81C27",
"K. c #EB1D27",
"L. c #EE1F27",
"P. c #E41F29",
"I. c #E61C2A",
"U. c #E0192C",
"Y. c #E01B2D",
"T. c #EA1C28",
"R. c #E91F2B",
"E. c #EA1E2A",
"W. c #EF1D28",
"Q. c #ED1D2A",
"!. c #ED1E2E",
"~. c #F21C26",
"^. c #F01929",
"/. c #CD2727",
"(. c #C6252A",
"). c #C12B2D",
"_. c #C62A2D",
"`. c #CD2928",
"'. c #CF292D",
"]. c #D52124",
"[. c #DC2529",
"{. c #D6282A",
"}. c #CB2634",
"|. c #C42B30",
" X c #C72E33",
".X c #C92830",
"XX c #C12D3D",
"oX c #C82D3B",
"OX c #C92E3C",
"+X c #D32431",
"@X c #D62630",
"#X c #DB2232",
"$X c #DD2531",
"%X c #D02931",
"&X c #D02C33",
"*X c #DA2538",
"=X c #CA303C",
"-X c #C0383C",
";X c #DD3034",
":X c #ED2027",
">X c #E02128",
",X c #E62128",
"<X c #E6252A",
"1X c #E4212F",
"2X c #E5262E",
"3X c #F02129",
"4X c #E12130",
"5X c #E12931",
"6X c #F02133",
"7X c #90413D",
"8X c #8C3243",
"9X c #973142",
"0X c #9D3941",
"qX c #AF3449",
"wX c #B63142",
"eX c #B43A45",
"rX c #B73D48",
"tX c #924150",
"yX c #A44946",
"uX c #A34751",
"iX c #BF5056",
"pX c #80625E",
"aX c #9D645D",
"sX c #A76559",
"dX c #895A60",
"fX c #8A6F64",
"gX c #B77572",
"hX c #D5515E",
"jX c #FB4456",
"kX c #FC6E7C",
"lX c #847F8A",
"zX c #898B84",
"xX c #978489",
"cX c #94888A",
"vX c #968D8B",
"bX c #968C8D",
"nX c #98888B",
"mX c #949695",
"MX c #9A9190",
"NX c #9F9694",
"BX c #A78883",
"VX c #A29899",
"CX c #A69C9E",
"ZX c #A79E9F",
"AX c #ADA2A4",
"SX c #FF928D",
"DX c #FF8692",
"FX c #F4B5AE",
"GX c #CCD4CC",
"HX c #D9D9DB",
"JX c #EED0D2",
"KX c None",
/* pixels */
"KXKXKXKXKXKXKXKXKXKXKXKXKXKXKXKXKXKXKXKXKXKXKXKXKXKXKXKXKXKXKXKXKXKXKXKXKXKXKXKXKXKXKXKXKXKXKXKXKXKX",
"KXKXKXKXKXKXKXKXKXKXKXKXKXKXKXKXKXKXKXKXKXKXKXKXKXKXKXKXKXKXKXKXKXKXKXKXKXKXKXKXKXKXKXKXKXKXKXKXKXKX",
"KXKXKXKXKXKXKXKXKXKXKXKXKXKXKXKXKXKXKXKXKXKXKXKXKXKXKXKXKXKXKXKXKXKXKXKXKXKXKXKXKXKXKXKXKXKXKXKXKXKX",
"KXKXKXKXKXKXKXKXKXKXKXKXKXKXKXKXKXKXKXKXKXKXKXKXKXKXKXKXKXKXKXKXKXKXKXKXKXKXKXKXKXKXKXKXKXKXKXKXKXKX",
"KXKXKXKXKXKXKXKXKXKXKXKXKXKXKXKXKXKXKXKXKXKXKXKXKXKXKXKXKXKXKXKXKXKXKXKXKXKXKXKXKXKXKXKXKXKXKXKXKXKX",
"KXKXKXKXKXKXKXKXKXKXKXKXKXKXKXKXKXKXKXKXKXKXKXKXKXKXKXKXKXKXKXKXKXKXKXKXKXKXKXKXKXKXKXKXKXKXKXKXKXKX",
"KXKXKXKXKXKXKXKXKXKXKXKXKXKXKXKXKXKXKXKXKXKXKXKXKXKXKXKXKXKXKXKXKXKXKXKXKXKXKXKXKXKXKXKXKXKXKXKXKXKX",
"KXKXKXKXKXKXKXKXKXKXKXKXKXKXKXKXKXKXKXKXKXKXKXKXKXKXKXKXKXKXKXKXKXKXKXKXKXKXKXKXKXKXKXKXKXKXKXKXKXKX",
"KXKXKXKXKXKXKXKXKXKXKXKXKXKXKXKXKXKXKXKXKXKXKXKXKXKXKXKXKXKXKXKXKXKXKXKXKXKXKXKXKXKXKXKXKXKXKXKXKXKX",
"KXKXKXKXKXKXKXKXKXKXKXKXKXKXKXKXKXKXKXKXKXKXKXKXKXKXKXKXKXKXKXKXKXKXKXKXKXKXKXKXKXKXKXKXKXKXKXKXKXKX",
"KXKXKXKXKXKXKXKXKXKXKXKXKXKXKXKXKXKXKXKXKXKXKXKXKXKXKXKXKXKXKXKXKXKXKXKXKXKXKXKXKXKXKXKXKXKXKXKXKXKX",
"KXKXKXKXKXKXKXKXKXKXKXKXKXKXKXKXKXKXKXKXKXKXKXKXKXKXKXKXKXKXKXKXKXKXKXKXKXKXKXKXKXKXKXKXKXKXKXKXKXKX",
"KXKXKXKXKXKXKXKXKXKXKXKXKXKXKXKXKXKXKXKXKXKXKXKXKXKXKXKXKXKXKXKXKXKXKXKXKXKXKXKXKXKXKXKXKXKXKXKXKXKX",
"KXKXKXKXKXKXKXKXKXKXKXKXKXKXKXKXKXKXKX} ^ b r.t.T E pXKXKXKXKXKXKXKXKXKXKXKXKXKXKXKXKXKXKXKXKXKXKXKX",
"KXKXKXKXKXKXKXKXKXKXKXKXKXKXKXKXKXKXx 0.eXKXKXKXkXhX8.( KXKXKXKXKXKXKXKXKXKXKXKXKXKXKXKXKXKXKXKXKXKX",
"KXKXKXKXKXKXKXKXKXKXKXKXKXKXKXKXKXK y.wXXXoX|.&X#XjXOXiXJ KXKXKXKXKXKXKXKXKXKXKXKXKXKXKXKXKXKXKXKXKX",
"KXKXKXKXKXKXKXKXKXKXKXKXKXKXKXKXj U h g $.h.@X>XT.!.Y.}.7.aXKXKXKXKXKXKXKXKXKXKXKXKXKXKXKXKXKXKXKXKX",
"KXKXKXKXKXKXKXKXKXKXKXKXKXKXKXI c KXKXKXuX@.,.<XS.~.^.4X).6.KXKXKXKXKXKXKXKXKXKXKXKXKXKXKXKXKXKXKXKX",
"KXKXKXKXKXKXKXKXKXKXKXKXKXKXKX@ KXKXKXKXKXY +./.B.:XK.C.5X;.BXKXKXKXKXKXKXKXKXKXKXKXKXKXKXKXKXKXKXKX",
"KXKXKXKXKXKXKXKXKXKXKXKXKXKXvXX.KXKXKXKXKXKXm >.[.Z.G.N.J. XS KXKXKXKXKXKXKXKXKXKXKXKXKXKXKXKXKXKXKX",
"KXKXKXKXKXKXKXKXKXKXKXKXKXKX  KXKXKXKXKXKXKX7X#.{.M.H.3XD.%XQ JXKXKXKXKXKXKXKXKXKXKXKXKXKXKXKXKXKXKX",
"KXKXKXKXKXKXKXKXKXKXKXKXKXKXq KXKXKXKXKXlXKXgXV '.,XV.L.W.b.q.dXbXKXKXKXKXKXKXKXKXKXKXKXKXKXKXKXKXKX",
"KXKXKXKXKXKXKXKXKXKXKXKXKXKX9 _ NXKXKXo.0 nXKXn _.2XA.F.Q.+X2.k ZX..HXKXKXKXKXKXKXKXKXKXKXKXKXKXKXKX",
"KXKXKXKXKXKXKXKXKXKXKXKXKXVX| + * KX{ 5 2 cXKXM a.m.R.E.P..Xu., = ) mXKXKXKXKXKXKXKXKXKXKXKXKXKXKXKX",
"KXKXKXKXKXKXKXKXKXKXKXKXKXAX] [ 1 zXi 3 6 KXKXf p.n.6XI.v.z./ ; ' GXKXKXKXKXKXKXKXKXKXKXKXKXKXKXKXKX",
"KXKXKXKXKXKXKXKXKXKXKXKXKXKXw KXKXKXKXr O.KXKXd =Xx.U.1Xc.SXsXfXKXKXKXKXKXKXKXKXKXKXKXKXKXKXKXKXKXKX",
"KXKXKXKXKXKXKXKXKXKXKXKXKXKX& KXKXKXKXKXKXKXKXB k.:.*X$X].<.Z FXKXKXKXKXKXKXKXKXKXKXKXKXKXKXKXKXKXKX",
"KXKXKXKXKXKXKXKXKXKXKXKXKXKX- CXKXKXKXKXKXKX! %.rXDX-.j.;X`.=.yXKXKXKXKXKXKXKXKXKXKXKXKXKXKXKXKXKXKX",
"KXKXKXKXKXKXKXKXKXKXKXKXKXKXMX` KXKXKXKXKXKXN e.KXKXKX9.s.(.l.&.i.KXKXKXKXKXKXKXKXKXKXKXKXKXKXKXKXKX",
"KXKXKXKXKXKXKXKXKXKXKXKXKXKXKX# xXKXKXKXKXR C 0XKXKXKXKX*.-X4.d.3.KXKXKXKXKXKXKXKXKXKXKXKXKXKXKXKXKX",
"KXKXKXKXKXKXKXKXKXKXKXKXKXKXKXKX.  .KXKXs z G KXKXKXKXKXKXD g.5.f.KXKXKXKXKXKXKXKXKXKXKXKXKXKXKXKXKX",
"KXKXKXKXKXKXKXKXKXKXKXKXKXKXKXKXKX< o X l p a KXKXKXKXKX: W A qX1.9XKXKXKXKXKXKXKXKXKXKXKXKXKXKXKXKX",
"KXKXKXKXKXKXKXKXKXKXKXKXKXKXKXKXKXKX% L O > H KXKXKXKXy e v ~ F w.8XKXKXKXKXKXKXKXKXKXKXKXKXKXKXKXKX",
"KXKXKXKXKXKXKXKXKXKXKXKXKXKXKXKXKXKX7 KXKX4 KXKXKXKXKXKXu $ KXKXtXKXKXKXKXKXKXKXKXKXKXKXKXKXKXKXKXKX",
"KXKXKXKXKXKXKXKXKXKXKXKXKXKXKXKXKXKXKXt KXP 8 KXKXKXKXKXKXKXKXKXKXKXKXKXKXKXKXKXKXKXKXKXKXKXKXKXKXKX",
"KXKXKXKXKXKXKXKXKXKXKXKXKXKXKXKXKXKXKXKXKXKXKXKXKXKXKXKXKXKXKXKXKXKXKXKXKXKXKXKXKXKXKXKXKXKXKXKXKXKX",
"KXKXKXKXKXKXKXKXKXKXKXKXKXKXKXKXKXKXKXKXKXKXKXKXKXKXKXKXKXKXKXKXKXKXKXKXKXKXKXKXKXKXKXKXKXKXKXKXKXKX",
"KXKXKXKXKXKXKXKXKXKXKXKXKXKXKXKXKXKXKXKXKXKXKXKXKXKXKXKXKXKXKXKXKXKXKXKXKXKXKXKXKXKXKXKXKXKXKXKXKXKX",
"KXKXKXKXKXKXKXKXKXKXKXKXKXKXKXKXKXKXKXKXKXKXKXKXKXKXKXKXKXKXKXKXKXKXKXKXKXKXKXKXKXKXKXKXKXKXKXKXKXKX",
"KXKXKXKXKXKXKXKXKXKXKXKXKXKXKXKXKXKXKXKXKXKXKXKXKXKXKXKXKXKXKXKXKXKXKXKXKXKXKXKXKXKXKXKXKXKXKXKXKXKX",
"KXKXKXKXKXKXKXKXKXKXKXKXKXKXKXKXKXKXKXKXKXKXKXKXKXKXKXKXKXKXKXKXKXKXKXKXKXKXKXKXKXKXKXKXKXKXKXKXKXKX",
"KXKXKXKXKXKXKXKXKXKXKXKXKXKXKXKXKXKXKXKXKXKXKXKXKXKXKXKXKXKXKXKXKXKXKXKXKXKXKXKXKXKXKXKXKXKXKXKXKXKX",
"KXKXKXKXKXKXKXKXKXKXKXKXKXKXKXKXKXKXKXKXKXKXKXKXKXKXKXKXKXKXKXKXKXKXKXKXKXKXKXKXKXKXKXKXKXKXKXKXKXKX",
"KXKXKXKXKXKXKXKXKXKXKXKXKXKXKXKXKXKXKXKXKXKXKXKXKXKXKXKXKXKXKXKXKXKXKXKXKXKXKXKXKXKXKXKXKXKXKXKXKXKX",
"KXKXKXKXKXKXKXKXKXKXKXKXKXKXKXKXKXKXKXKXKXKXKXKXKXKXKXKXKXKXKXKXKXKXKXKXKXKXKXKXKXKXKXKXKXKXKXKXKXKX",
"KXKXKXKXKXKXKXKXKXKXKXKXKXKXKXKXKXKXKXKXKXKXKXKXKXKXKXKXKXKXKXKXKXKXKXKXKXKXKXKXKXKXKXKXKXKXKXKXKXKX",
"KXKXKXKXKXKXKXKXKXKXKXKXKXKXKXKXKXKXKXKXKXKXKXKXKXKXKXKXKXKXKXKXKXKXKXKXKXKXKXKXKXKXKXKXKXKXKXKXKXKX",
"KXKXKXKXKXKXKXKXKXKXKXKXKXKXKXKXKXKXKXKXKXKXKXKXKXKXKXKXKXKXKXKXKXKXKXKXKXKXKXKXKXKXKXKXKXKXKXKXKXKX",
"KXKXKXKXKXKXKXKXKXKXKXKXKXKXKXKXKXKXKXKXKXKXKXKXKXKXKXKXKXKXKXKXKXKXKXKXKXKXKXKXKXKXKXKXKXKXKXKXKXKX",
"KXKXKXKXKXKXKXKXKXKXKXKXKXKXKXKXKXKXKXKXKXKXKXKXKXKXKXKXKXKXKXKXKXKXKXKXKXKXKXKXKXKXKXKXKXKXKXKXKXKX"
};
