/* XPM */
static char *result[] = {
/* columns rows colors chars-per-pixel */
"50 50 249 2 ",
"   c #1E1412",
".  c #1B1B1B",
"X  c #260E0E",
"o  c #370E0C",
"O  c #251717",
"+  c #2A1114",
"@  c #241818",
"#  c #261818",
"$  c #29191A",
"%  c #2A1A1A",
"&  c #281C1C",
"*  c #2C1E1E",
"=  c #391312",
"-  c #3F1517",
";  c #321819",
":  c #381A18",
">  c #1F2217",
",  c #1E261B",
"<  c #251923",
"1  c #281D23",
"2  c #2A1D24",
"3  c #252122",
"4  c #262223",
"5  c #232126",
"6  c #232027",
"7  c #232524",
"8  c #282224",
"9  c #2B2527",
"0  c #2D2425",
"q  c #282129",
"w  c #2C2829",
"e  c #2E282C",
"r  c #332525",
"t  c #352727",
"y  c #3D2324",
"u  c #302C3A",
"i  c #3D3435",
"p  c #3A3539",
"a  c #3E383A",
"s  c #480808",
"d  c #4C0C0A",
"f  c #4A0E0E",
"g  c #5B0000",
"h  c #5D0501",
"j  c #5F0006",
"k  c #590B0B",
"l  c #43100F",
"z  c #400D12",
"x  c #550D10",
"c  c #491114",
"v  c #501010",
"b  c #610000",
"n  c #640702",
"m  c #6A0000",
"M  c #6B0001",
"N  c #6C0000",
"B  c #6D0000",
"V  c #780009",
"C  c #7F030B",
"Z  c #7E040F",
"A  c #600D15",
"S  c #7C1C1D",
"D  c #4B291F",
"F  c #721F21",
"G  c #582222",
"H  c #5C2423",
"J  c #5A2D27",
"K  c #5D2C25",
"L  c #463233",
"P  c #4B3738",
"I  c #423839",
"U  c #602020",
"Y  c #6C2024",
"T  c #682627",
"R  c #642A29",
"E  c #722328",
"W  c #7E232A",
"Q  c #773223",
"!  c #643432",
"~  c #763839",
"^  c #3F3A40",
"/  c #4E4244",
"(  c #504442",
")  c #574848",
"_  c #514F50",
"`  c #504E51",
"'  c #514D5B",
"]  c #5C5351",
"[  c #585657",
"{  c #5F5959",
"}  c #6A4C48",
"|  c #6A5C5C",
" . c #795A58",
".. c #796566",
"X. c #746969",
"o. c #717173",
"O. c #797375",
"+. c #797179",
"@. c #7A7A7B",
"#. c #8C0000",
"$. c #900C0A",
"%. c #860D16",
"&. c #881415",
"*. c #8C1F18",
"=. c #951A1D",
"-. c #B71314",
";. c #B71216",
":. c #851D26",
">. c #BC1B21",
",. c #852526",
"<. c #8C2622",
"1. c #8C272F",
"2. c #892B2D",
"3. c #91212F",
"4. c #892A32",
"5. c #8D2C37",
"6. c #892C3F",
"7. c #9E2F36",
"8. c #863438",
"9. c #8A353A",
"0. c #953D32",
"q. c #98343E",
"w. c #B42529",
"e. c #B7252F",
"r. c #BF242A",
"t. c #B02A2B",
"y. c #BD2D2D",
"u. c #A82130",
"i. c #B52435",
"p. c #BF2C32",
"a. c #BE2C36",
"s. c #A9333F",
"d. c #B53033",
"f. c #B6323D",
"g. c #C3161C",
"h. c #E1191C",
"j. c #E81A1C",
"k. c #D31F28",
"l. c #DF1C2A",
"z. c #EA1622",
"x. c #EE1726",
"c. c #E71C20",
"v. c #E31B25",
"b. c #E11C26",
"n. c #E61F24",
"m. c #E41F26",
"M. c #EF1E23",
"N. c #E81825",
"B. c #E91926",
"V. c #EB1926",
"C. c #ED1925",
"Z. c #E91E24",
"A. c #EE1C27",
"S. c #E11F28",
"D. c #E51D28",
"F. c #E61E28",
"G. c #EE1F29",
"H. c #ED1D2A",
"J. c #ED1D2B",
"K. c #EC1E2A",
"L. c #EE1F2F",
"P. c #F01A22",
"I. c #F01A26",
"U. c #F11B27",
"Y. c #F11E25",
"T. c #F01C28",
"R. c #C82129",
"E. c #CE242D",
"W. c #CB2B2B",
"Q. c #CF292B",
"!. c #DB2323",
"~. c #DA2126",
"^. c #D5212A",
"/. c #D4232B",
"(. c #D1272A",
"). c #D52729",
"_. c #D4242F",
"`. c #D6252F",
"'. c #D7262E",
"]. c #DC232B",
"[. c #DE2729",
"{. c #C9312E",
"}. c #C22B30",
"|. c #C92C33",
" X c #CE2D32",
".X c #C92C35",
"XX c #C72F3B",
"oX c #C02D3D",
"OX c #D92330",
"+X c #DB2230",
"@X c #D12936",
"#X c #DB2C33",
"$X c #C33132",
"%X c #C13238",
"&X c #C6303C",
"*X c #E32122",
"=X c #E62625",
"-X c #EF2026",
";X c #E6212A",
":X c #E7252D",
">X c #EF212B",
",X c #8F403D",
"<X c #952E41",
"1X c #B53041",
"2X c #B33944",
"3X c #C02E41",
"4X c #9F4851",
"5X c #885B5F",
"6X c #BC5256",
"7X c #81625D",
"8X c #9E635D",
"9X c #AA6665",
"0X c #D5515E",
"qX c #F84656",
"wX c #FC6E7C",
"eX c #7F8A7F",
"rX c #858182",
"tX c #978187",
"yX c #918585",
"uX c #928C8E",
"iX c #958F91",
"pX c #AD8585",
"aX c #A89E9E",
"sX c #A5A3A4",
"dX c #B6B2B3",
"fX c #BEB8BA",
"gX c #BFBCBC",
"hX c #BFBDBD",
"jX c #D98B8B",
"kX c #CF9997",
"lX c #C59999",
"zX c #FF8F93",
"xX c #E89295",
"cX c #D5A8A3",
"vX c #C2B9BC",
"bX c #DBBDBB",
"nX c #FFA7AF",
"mX c #FFADB2",
"MX c #FFAEB5",
"NX c #E4B0B2",
"BX c #E5B7B9",
"VX c #EABCBF",
"CX c #CCC3C6",
"ZX c #C3C8CA",
"AX c #D1C8CB",
"SX c #EACAC5",
"DX c #F0E3DD",
"FX c #E5DFE0",
"GX c None",
/* pixels */
"GXGXGXGXGXGXGXGXGXGXGXGXGXGXGXGXGXGXGXGXGXGXGXGXGXGXGXGXGXGXGXGXGXGXGXGXGXGXGXGXGXGXGXGXGXGXGXGXGXGX",
"GXGXGXGXGXGXGXGXGXGXGXGXGXGXGXGXGXGXGXGXGXGXGXGXGXGXGXGXGXGXGXGXGXGXGXGXGXGXGXGXGXGXGXGXGXGXGXGXGXGX",
"GXGXGXGXGXGXGXGXGXGXGXGXGXGXGXGXGXGXGXGXGXGXGXGXGXGXGXGXGXGXGXGXGXGXGXGXGXGXGXGXGXGXGXGXGXGXGXGXGXGX",
"GXGXGXGXGXGXGXGXGXGXGXGXGXGXGXGXGXGXGXGXGXGXGXGXGXGXGXGXGXGXGXGXGXGXGXGXGXGXGXGXGXGXGXGXGXGXGXGXGXGX",
"GXGXGXGXGXGXGXGXGXGXGXGXGXGXGXGXGXGXGXGXGXGXGXGXGXGXGXGXGXGXGXGXGXGXGXGXGXGXGXGXGXGXGXGXGXGXGXGXGXGX",
"GXGXGXGXGXGXGXGXGXGXGXGXGXGXGXGXGXGXGXGXGXGXGXGXGXGXGXGXGXGXGXGXGXGXGXGXGXGXGXGXGXGXGXGXGXGXGXGXGXGX",
"GXGXGXGXGXGXGXGXGXGXGXGXGXGXGXGXGXGXGXGXGXGXGXGXGXGXGXGXGXGXGXGXGXGXGXGXGXGXGXGXGXGXGXGXGXGXGXGXGXGX",
"GXGXGXGXGXGXGXGXGXGXGXGXGXGXGXGXGXGXGXGXGXGXGXGXGXGXGXGXGXGXGXGXGXGXGXGXGXGXGXGXGXGXGXGXGXGXGXGXGXGX",
"GXGXGXGXGXGXGXGXGXGXGXGXGXGXGXGXGXGXGXGXGXGXGXGXGXGXGXGXGXGXGXGXGXGXGXGXGXGXGXGXGXGXGXGXGXGXGXGXGXGX",
"GXGXGXGXGXGXGXGXGXGXGXGXGXGXGXGXGXGXGXGXGXGXGXGXGXGXGXGXGXGXGXGXGXGXGXGXGXGXGXGXGXGXGXGXGXGXGXGXGXGX",
"GXGXGXGXGXGXGXGXGXGXGXGXGXGXGXGXGXGXGXGXGXGXGXGXGXGXGXGXGXGXGXGXGXGXGXGXGXGXGXGXGXGXGXGXGXGXGXGXGXGX",
"GXGXGXGXGXGXGXGXGXGXGXGXGXGXGXGXGXGXGXGXGXGXGXGXGXGXGXGXGXGXGXGXGXGXGXGXGXGXGXGXGXGXGXGXGXGXGXGXGXGX",
"GXGXGXGXGXGXGXGXGXGXGXGXGXGXGXGXGXGXGXGXGXGXVXBXbXDXGXGXGXGXGXGXGXGXGXGXGXGXGXGXGXGXGXGXGXGXGXGXGXGX",
"GXGXGXGXGXGXGXGXGXGXGXGXGXGXGXGXGXGXGX} ! U 8.9.Y R 7XGXGXGXGXGXGXGXGXGXGXGXGXGXGXGXGXGXGXGXGXGXGXGX",
"GXGXGXGXGXGXGXGXGXGXGXGXGXGXGXGXGXGXA 3.2XnXmXMXwX0X1.~ GXGXGXGXGXGXGXGXGXGXGXGXGXGXGXGXGXGXGXGXGXGX",
"GXGXGXGXGXGXGXGXGXGXGXGXGXGXGXGXGXJ q.1XoXXX}. XOXqX&X6XK GXGXGXGXGXGXGXGXGXGXGXGXGXGXGXGXGXGXGXGXGX",
"GXGXGXGXGXGXGXGXGXGXGXGXGXGXGXGX= H x j Z e.Q.!.n.;X^.p.<.8XGXGXGXGXGXGXGXGXGXGXGXGXGXGXGXGXGXGXGXGX",
"GXGXGXGXGXGXGXGXGXGXGXGXGXGXGXP - GXGXGX4XC -.=Xj.M.F.'.y.,.GXGXGXGXGXGXGXGXGXGXGXGXGXGXGXGXGXGXGXGX",
"GXGXGXGXGXGXGXGXGXGXGXGXGXGXGX$ GXGXGXGXGXF #.~.c.Y.A.b.#X=.pXGXGXGXGXGXGXGXGXGXGXGXGXGXGXGXGXGXGXGX",
"GXGXGXGXGXGXGXGXGXGXGXGXGXGXyXX.GXGXGXGXGXGXB ;.m.P.I.N.S.%XG GXGXGXGXGXGXGXGXGXGXGXGXGXGXGXGXGXGXGX",
"GXGXGXGXGXGXGXGXGXGXGXGXGXGX@ GXGXGXGXGXGXGX,X$.].z.A.>Xv.|.E GXGXGXGXGXGXGXGXGXGXGXGXGXGXGXGXGXGXGX",
"GXGXGXGXGXGXGXGXGXGXGXGXGXGX* GXGXGXGXGXGXGXGXN `.H.B.G.K.R.4.5XGXGXGXGXGXGXGXGXGXGXGXGXGXGXGXGXGXGX",
"GXGXGXGXGXGXGXGXGXGXGXGXGXGXr ( GXGXGX+.q GXGXb E.L.V.x.T._.:.z GXGXGXGXGXGXGXGXGXGXGXGXGXGXGXGXGXGX",
"GXGXGXGXGXGXGXGXGXGXGXGXGXGX|   > GX{ 1 < GXGXn r.l.J.U.I./.7.c GXGXGXGXGXGXGXGXGXGXGXGXGXGXGXGXGXGX",
"GXGXGXGXGXGXGXGXGXGXGXGXGXGX) ] , eXi 2 5 GXGXh t.g.D.C.-X).&.v GXGXGXGXGXGXGXGXGXGXGXGXGXGXGXGXGXGX",
"GXGXGXGXGXGXGXGXGXGXGXGXGXGXt GXGXGXGXe @.GXGXg d.>.k.:Xh.[.w.GXGXGXGXGXGXGXGXGXGXGXGXGXGXGXGXGXGXGX",
"GXGXGXGXGXGXGXGXGXGXGXGXGXGX# GXGXGXGXGXGXGX9XM a..X$XW.*XZ.+Xi.GXGXGXGXGXGXGXGXGXGXGXGXGXGXGXGXGXGX",
"GXGXGXGXGXGXGXGXGXGXGXGXGXGX& aXGXGXGXGXGXGXW %.f.zXGX*.{.(.@X3X<XGXGXGXGXGXGXGXGXGXGXGXGXGXGXGXGXGX",
"GXGXGXGXGXGXGXGXGXGXGXGXGXGXGX/ GXGXGXGXGXNXm u.xXGXGXGXQ 0.2.5.6.GXGXGXGXGXGXGXGXGXGXGXGXGXGXGXGXGX",
"GXGXGXGXGXGXGXGXGXGXGXGXGXGXGXO tXGXGXGXSXT V s.GXGXGXGXGXD GXGXGXGXGXGXGXGXGXGXGXGXGXGXGXGXGXGXGXGX",
"GXGXGXGXGXGXGXGXGXGXGXGXGXGXGXGXX  .lXkXd k S jXGXGXGXGXI GXGXGXGXGXGXGXGXGXGXGXGXGXGXGXGXGXGXGXGXGX",
"GXGXGXGXGXGXGXGXGXGXGXGXGXGXGXGXGX: o l f s d cXGXZX' u 6 GXGXGXGXGXGXGXGXGXGXGXGXGXGXGXGXGXGXGXGXGX",
"GXGXGXGXGXGXGXGXGXGXGXGXGXGXGXGXGXGX% L + ; y ..0 p ^ GX` o.GXGXGXGXGXGXGXGXGXGXGXGXGXGXGXGXGXGXGXGX",
"GXGXGXGXGXGXGXGXGXGXGXGXGXGXGXGXGXGX4 rXO.9 vXCXAXFX3 _ hX. 7 GXGXGXGXGXGXGXGXGXGXGXGXGXGXGXGXGXGXGX",
"GXGXGXGXGXGXGXGXGXGXGXGXGXGXGXGXGXGXsXw uXa 8 iXGXGXdX[ GXGXGXGXGXGXGXGXGXGXGXGXGXGXGXGXGXGXGXGXGXGX",
"GXGXGXGXGXGXGXGXGXGXGXGXGXGXGXGXGXGXGXGXgXGXfXGXGXGXGXGXGXGXGXGXGXGXGXGXGXGXGXGXGXGXGXGXGXGXGXGXGXGX",
"GXGXGXGXGXGXGXGXGXGXGXGXGXGXGXGXGXGXGXGXGXGXGXGXGXGXGXGXGXGXGXGXGXGXGXGXGXGXGXGXGXGXGXGXGXGXGXGXGXGX",
"GXGXGXGXGXGXGXGXGXGXGXGXGXGXGXGXGXGXGXGXGXGXGXGXGXGXGXGXGXGXGXGXGXGXGXGXGXGXGXGXGXGXGXGXGXGXGXGXGXGX",
"GXGXGXGXGXGXGXGXGXGXGXGXGXGXGXGXGXGXGXGXGXGXGXGXGXGXGXGXGXGXGXGXGXGXGXGXGXGXGXGXGXGXGXGXGXGXGXGXGXGX",
"GXGXGXGXGXGXGXGXGXGXGXGXGXGXGXGXGXGXGXGXGXGXGXGXGXGXGXGXGXGXGXGXGXGXGXGXGXGXGXGXGXGXGXGXGXGXGXGXGXGX",
"GXGXGXGXGXGXGXGXGXGXGXGXGXGXGXGXGXGXGXGXGXGXGXGXGXGXGXGXGXGXGXGXGXGXGXGXGXGXGXGXGXGXGXGXGXGXGXGXGXGX",
"GXGXGXGXGXGXGXGXGXGXGXGXGXGXGXGXGXGXGXGXGXGXGXGXGXGXGXGXGXGXGXGXGXGXGXGXGXGXGXGXGXGXGXGXGXGXGXGXGXGX",
"GXGXGXGXGXGXGXGXGXGXGXGXGXGXGXGXGXGXGXGXGXGXGXGXGXGXGXGXGXGXGXGXGXGXGXGXGXGXGXGXGXGXGXGXGXGXGXGXGXGX",
"GXGXGXGXGXGXGXGXGXGXGXGXGXGXGXGXGXGXGXGXGXGXGXGXGXGXGXGXGXGXGXGXGXGXGXGXGXGXGXGXGXGXGXGXGXGXGXGXGXGX",
"GXGXGXGXGXGXGXGXGXGXGXGXGXGXGXGXGXGXGXGXGXGXGXGXGXGXGXGXGXGXGXGXGXGXGXGXGXGXGXGXGXGXGXGXGXGXGXGXGXGX",
"GXGXGXGXGXGXGXGXGXGXGXGXGXGXGXGXGXGXGXGXGXGXGXGXGXGXGXGXGXGXGXGXGXGXGXGXGXGXGXGXGXGXGXGXGXGXGXGXGXGX",
"GXGXGXGXGXGXGXGXGXGXGXGXGXGXGXGXGXGXGXGXGXGXGXGXGXGXGXGXGXGXGXGXGXGXGXGXGXGXGXGXGXGXGXGXGXGXGXGXGXGX",
"GXGXGXGXGXGXGXGXGXGXGXGXGXGXGXGXGXGXGXGXGXGXGXGXGXGXGXGXGXGXGXGXGXGXGXGXGXGXGXGXGXGXGXGXGXGXGXGXGXGX",
"GXGXGXGXGXGXGXGXGXGXGXGXGXGXGXGXGXGXGXGXGXGXGXGXGXGXGXGXGXGXGXGXGXGXGXGXGXGXGXGXGXGXGXGXGXGXGXGXGXGX",
"GXGXGXGXGXGXGXGXGXGXGXGXGXGXGXGXGXGXGXGXGXGXGXGXGXGXGXGXGXGXGXGXGXGXGXGXGXGXGXGXGXGXGXGXGXGXGXGXGXGX"
};
