/* XPM */
static char *result[] = {
/* columns rows colors chars-per-pixel */
"50 50 217 2 ",
"   c #290D0A",
".  c #330F13",
"X  c #211215",
"o  c #2B1214",
"O  c #231814",
"+  c #281A17",
"@  c #241818",
"#  c #261818",
"$  c #291A1D",
"%  c #281C1C",
"&  c #2C1E1E",
"*  c #3E1013",
"=  c #35161B",
"-  c #3B191A",
";  c #1F1D22",
":  c #261C24",
">  c gray13",
",  c #222222",
"<  c #262022",
"1  c #262222",
"2  c #252027",
"3  c #292324",
"4  c #2F2327",
"5  c #2B2526",
"6  c #242329",
"7  c #2C282A",
"8  c #332525",
"9  c #352727",
"0  c #30272A",
"q  c #3B3539",
"w  c #3D3439",
"e  c #3E3839",
"r  c #590000",
"t  c #5E0000",
"y  c #520309",
"u  c #54070F",
"i  c #51080F",
"p  c #500A12",
"a  c #5B0915",
"s  c #411016",
"d  c #421417",
"f  c #640000",
"g  c #650006",
"h  c #690000",
"j  c #6A0000",
"k  c #6C0000",
"l  c #6C0107",
"z  c #62000A",
"x  c #65040B",
"c  c #62050D",
"v  c #7C0604",
"b  c #7E050C",
"n  c #7C130F",
"m  c #600D15",
"M  c #7A1519",
"N  c #6D221D",
"B  c #791A20",
"V  c #402126",
"C  c #5F2D26",
"Z  c #5C2C28",
"A  c #443234",
"S  c #4C3638",
"D  c #602020",
"F  c #632027",
"G  c #6B2023",
"H  c #6B2428",
"J  c #632A29",
"K  c #6F292D",
"L  c #7E2223",
"P  c #702B24",
"I  c #643432",
"U  c #7A3538",
"Y  c #773839",
"T  c #4D4341",
"R  c #4F4345",
"E  c #564848",
"W  c #5E5256",
"Q  c #5D5B5E",
"!  c #6A4B48",
"~  c #6A5C5C",
"^  c #795A57",
"/  c #7C6467",
"(  c #736C66",
")  c #747378",
"_  c #767B7A",
"`  c #880000",
"'  c #950000",
"]  c #900B0C",
"[  c #830E1E",
"{  c #900B10",
"}  c #9F1016",
"|  c #A00007",
" . c #AE0C07",
".. c #B50512",
"X. c #B61412",
"o. c #B41416",
"O. c #811922",
"+. c #8A1C25",
"@. c #A61D24",
"#. c #B41C28",
"$. c #B11E30",
"%. c #8A2020",
"&. c #8F2527",
"*. c #8C272F",
"=. c #91212F",
"-. c #932D2B",
";. c #97282E",
":. c #8F2531",
">. c #803635",
",. c #863438",
"<. c #8A353A",
"1. c #9A3C3D",
"2. c #A92229",
"3. c #B62729",
"4. c #BA202C",
"5. c #B12F2F",
"6. c #B22535",
"7. c #B42F34",
"8. c #AB333D",
"9. c #B63338",
"0. c #BF333C",
"q. c #C8070A",
"w. c #D51B1C",
"e. c #C11720",
"r. c #C61A26",
"t. c #C91F2A",
"y. c #CE1F2C",
"u. c #DE1920",
"i. c #D01F29",
"p. c #E41622",
"a. c #E81623",
"s. c #E41B25",
"d. c #E11E24",
"f. c #E01F24",
"g. c #E81D21",
"h. c #E91D26",
"j. c #EB1829",
"k. c #E41D30",
"l. c #EB1C30",
"z. c #ED1F33",
"x. c #C22127",
"c. c #C62724",
"v. c #CC2129",
"b. c #CA252C",
"n. c #CB262D",
"m. c #CE242F",
"M. c #D72326",
"N. c #D72227",
"B. c #DB2325",
"V. c #DC2227",
"C. c #D6222D",
"Z. c #D6222E",
"A. c #DB202B",
"S. c #DD222D",
"D. c #D12929",
"F. c #D32A2D",
"G. c #C52735",
"H. c #C22B30",
"J. c #CD2930",
"K. c #CF2C31",
"L. c #CE2D33",
"P. c #CA2F35",
"I. c #C02E3B",
"U. c #C92E3E",
"Y. c #D52333",
"T. c #D32735",
"R. c #DF2032",
"E. c #D92234",
"W. c #DB2637",
"Q. c #D42A33",
"!. c #C63039",
"~. c #C6333D",
"^. c #CE303F",
"/. c #D23330",
"(. c #E22424",
"). c #E12526",
"_. c #E62528",
"`. c #E1212C",
"'. c #E6202F",
"]. c #EE252D",
"[. c #E02536",
"{. c #F02731",
"}. c #8F3F40",
"|. c #993340",
" X c #9D3744",
".X c #B73041",
"XX c #B23442",
"oX c #B33944",
"OX c #9F4B4B",
"+X c #BF5057",
"@X c #81625E",
"#X c #9E615D",
"$X c #A16A63",
"%X c #B27678",
"&X c #D5515E",
"*X c #F74457",
"=X c #FD6D7C",
"-X c #E77678",
";X c #93847E",
":X c #7F8088",
">X c #89848A",
",X c #908685",
"<X c #97868C",
"1X c #97868D",
"2X c #9C9291",
"3X c #9A9799",
"4X c #A29699",
"5X c #A89E9D",
"6X c #B5A49C",
"7X c #AFA2A4",
"8X c #BCA8A1",
"9X c #BAB5B1",
"0X c #DA8990",
"qX c #C79391",
"wX c #DC9890",
"eX c #FF9898",
"rX c None",
/* pixels */
"rXrXrXrXrXrXrXrXrXrXrXrXrXrXrXrXrXrXrXrXrXrXrXrXrXrXrXrXrXrXrXrXrXrXrXrXrXrXrXrXrXrXrXrXrXrXrXrXrXrX",
"rXrXrXrXrXrXrXrXrXrXrXrXrXrXrXrXrXrXrXrXrXrXrXrXrXrXrXrXrXrXrXrXrXrXrXrXrXrXrXrXrXrXrXrXrXrXrXrXrXrX",
"rXrXrXrXrXrXrXrXrXrXrXrXrXrXrXrXrXrXrXrXrXrXrXrXrXrXrXrXrXrXrXrXrXrXrXrXrXrXrXrXrXrXrXrXrXrXrXrXrXrX",
"rXrXrXrXrXrXrXrXrXrXrXrXrXrXrXrXrXrXrXrXrXrXrXrXrXrXrXrXrXrXrXrXrXrXrXrXrXrXrXrXrXrXrXrXrXrXrXrXrXrX",
"rXrXrXrXrXrXrXrXrXrXrXrXrXrXrXrXrXrXrXrXrXrXrXrXrXrXrXrXrXrXrXrXrXrXrXrXrXrXrXrXrXrXrXrXrXrXrXrXrXrX",
"rXrXrXrXrXrXrXrXrXrXrXrXrXrXrXrXrXrXrXrXrXrXrXrXrXrXrXrXrXrXrXrXrXrXrXrXrXrXrXrXrXrXrXrXrXrXrXrXrXrX",
"rXrXrXrXrXrXrXrXrXrXrXrXrXrXrXrXrXrXrXrXrXrXrXrXrXrXrXrXrXrXrXrXrXrXrXrXrXrXrXrXrXrXrXrXrXrXrXrXrXrX",
"rXrXrXrXrXrXrXrXrXrXrXrXrXrXrXrXrXrXrXrXrXrXrXrXrXrXrXrXrXrXrXrXrXrXrXrXrXrXrXrXrXrXrXrXrXrXrXrXrXrX",
"rXrXrXrXrXrXrXrXrXrXrXrXrXrXrXrXrXrXrXrXrXrXrXrXrXrXrXrXrXrXrXrXrXrXrXrXrXrXrXrXrXrXrXrXrXrXrXrXrXrX",
"rXrXrXrXrXrXrXrXrXrXrXrXrXrXrXrXrXrXrXrXrXrXrXrXrXrXrXrXrXrXrXrXrXrXrXrXrXrXrXrXrXrXrXrXrXrXrXrXrXrX",
"rXrXrXrXrXrXrXrXrXrXrXrXrXrXrXrXrXrXrXrXrXrXrXrXrXrXrXrXrXrXrXrXrXrXrXrXrXrXrXrXrXrXrXrXrXrXrXrXrXrX",
"rXrXrXrXrXrXrXrXrXrXrXrXrXrXrXrXrXrXrXrXrXrXrXrXrXrXrXrXrXrXrXrXrXrXrXrXrXrXrXrXrXrXrXrXrXrXrXrXrXrX",
"rXrXrXrXrXrXrXrXrXrXrXrXrXrXrXrXrXrXrXrXrXrXrXrXrXrXrXrXrXrXrXrXrXrXrXrXrXrXrXrXrXrXrXrXrXrXrXrXrXrX",
"rXrXrXrXrXrXrXrXrXrXrXrXrXrXrXrXrXrXrX! I D ,.<.G J @XrXrXrXrXrXrXrXrXrXrXrXrXrXrXrXrXrXrXrXrXrXrXrX",
"rXrXrXrXrXrXrXrXrXrXrXrXrXrXrXrXrXrXm =.oXrXrXrX=X&X*.Y rXrXrXrXrXrXrXrXrXrXrXrXrXrXrXrXrXrXrXrXrXrX",
"rXrXrXrXrXrXrXrXrXrXrXrXrXrXrXrX6XZ |..XI.!.H.L.E.*XU.+XC rXrXrXrXrXrXrXrXrXrXrXrXrXrXrXrXrXrXrXrXrX",
"rXrXrXrXrXrXrXrXrXrXrXrXrXrXrXrX* F a z b 3.D.V.'.k.R.G.&.#XrXrXrXrXrXrXrXrXrXrXrXrXrXrXrXrXrXrXrXrX",
"rXrXrXrXrXrXrXrXrXrXrXrXrXrXrXS d rXrXrXOXv X._.p.j.l.W.7.L rXrXrXrXrXrXrXrXrXrXrXrXrXrXrXrXrXrXrXrX",
"rXrXrXrXrXrXrXrXrXrXrXrXrXrXrX+ 8XrXrXrXrXN ` M.].a.z.Y.9.%.M B rXrXrXrXrXrXrXrXrXrXrXrXrXrXrXrXrXrX",
"rXrXrXrXrXrXrXrXrXrXrXrXrXrX,X( rXrXrXrXrXrXj o.f.h.S.m.} { @.2.XX XrXrXrXrXrXrXrXrXrXrXrXrXrXrXrXrX",
"rXrXrXrXrXrXrXrXrXrXrXrXrXrX@ 9XrXrXrXrXrXrX}.] N.).c.' t.T.b.P.$.[ rXrXrXrXrXrXrXrXrXrXrXrXrXrXrXrX",
"rXrXrXrXrXrXrXrXrXrXrXrXrXrX& rXrXrXrXrX:XrX%Xk F.w. ./.Z.[.i.| 6.:.rXrXrXrXrXrXrXrXrXrXrXrXrXrXrXrX",
"rXrXrXrXrXrXrXrXrXrXrXrXrXrX8 R 3XrXrX) 6 1XrXt K.q.(.B.C...y.#.+.K rXrXrXrXrXrXrXrXrXrXrXrXrXrXrXrX",
"rXrXrXrXrXrXrXrXrXrXrXrXrX4X~ X : rXQ > ; <XrXx x.u.g.d.r.4.0.;.U rXrXrXrXrXrXrXrXrXrXrXrXrXrXrXrXrX",
"rXrXrXrXrXrXrXrXrXrXrXrXrX7XE W 2 >Xw < , rXrXg e.{.s.A.^.8.>.rXrXrXrXrXrXrXrXrXrXrXrXrXrXrXrXrXrXrX",
"rXrXrXrXrXrXrXrXrXrXrXrXrXrX9 rXrXrXrX0 _ rXqXf Q.`.v.~.rXrXrXrXrXrXrXrXrXrXrXrXrXrXrXrXrXrXrXrXrXrX",
"rXrXrXrXrXrXrXrXrXrXrXrXrXrX# rXrXrXrXrXrXrX$Xh J.n.-XrXrXrXrXrXrXrXrXrXrXrXrXrXrXrXrXrXrXrXrXrXrXrX",
"rXrXrXrXrXrXrXrXrXrXrXrXrXrX% 5XrXrXrXrXrXrXP n 5.eXrXrXrXrXrXrXrXrXrXrXrXrXrXrXrXrXrXrXrXrXrXrXrXrX",
"rXrXrXrXrXrXrXrXrXrXrXrXrXrX2XT rXrXrXrXrXrXr -.wXrXrXrXrXrXrXrXrXrXrXrXrXrXrXrXrXrXrXrXrXrXrXrXrXrX",
"rXrXrXrXrXrXrXrXrXrXrXrXrXrXrXO ;XrXrXrXrXH l 1.rXrXrXrXrXrXrXrXrXrXrXrXrXrXrXrXrXrXrXrXrXrXrXrXrXrX",
"rXrXrXrXrXrXrXrXrXrXrXrXrXrXrXrX  ^ rXrXi c O.0XrXrXrXrXrXrXrXrXrXrXrXrXrXrXrXrXrXrXrXrXrXrXrXrXrXrX",
"rXrXrXrXrXrXrXrXrXrXrXrXrXrXrXrXrX- . s p y u rXrXrXrXrXrXrXrXrXrXrXrXrXrXrXrXrXrXrXrXrXrXrXrXrXrXrX",
"rXrXrXrXrXrXrXrXrXrXrXrXrXrXrXrXrXrX$ A o = V / 4 q rXrXrXrXrXrXrXrXrXrXrXrXrXrXrXrXrXrXrXrXrXrXrXrX",
"rXrXrXrXrXrXrXrXrXrXrXrXrXrXrXrXrXrX1 rXrX5 rXrXrXrXrXrXrXrXrXrXrXrXrXrXrXrXrXrXrXrXrXrXrXrXrXrXrXrX",
"rXrXrXrXrXrXrXrXrXrXrXrXrXrXrXrXrXrXrX7 rXe 3 rXrXrXrXrXrXrXrXrXrXrXrXrXrXrXrXrXrXrXrXrXrXrXrXrXrXrX",
"rXrXrXrXrXrXrXrXrXrXrXrXrXrXrXrXrXrXrXrXrXrXrXrXrXrXrXrXrXrXrXrXrXrXrXrXrXrXrXrXrXrXrXrXrXrXrXrXrXrX",
"rXrXrXrXrXrXrXrXrXrXrXrXrXrXrXrXrXrXrXrXrXrXrXrXrXrXrXrXrXrXrXrXrXrXrXrXrXrXrXrXrXrXrXrXrXrXrXrXrXrX",
"rXrXrXrXrXrXrXrXrXrXrXrXrXrXrXrXrXrXrXrXrXrXrXrXrXrXrXrXrXrXrXrXrXrXrXrXrXrXrXrXrXrXrXrXrXrXrXrXrXrX",
"rXrXrXrXrXrXrXrXrXrXrXrXrXrXrXrXrXrXrXrXrXrXrXrXrXrXrXrXrXrXrXrXrXrXrXrXrXrXrXrXrXrXrXrXrXrXrXrXrXrX",
"rXrXrXrXrXrXrXrXrXrXrXrXrXrXrXrXrXrXrXrXrXrXrXrXrXrXrXrXrXrXrXrXrXrXrXrXrXrXrXrXrXrXrXrXrXrXrXrXrXrX",
"rXrXrXrXrXrXrXrXrXrXrXrXrXrXrXrXrXrXrXrXrXrXrXrXrXrXrXrXrXrXrXrXrXrXrXrXrXrXrXrXrXrXrXrXrXrXrXrXrXrX",
"rXrXrXrXrXrXrXrXrXrXrXrXrXrXrXrXrXrXrXrXrXrXrXrXrXrXrXrXrXrXrXrXrXrXrXrXrXrXrXrXrXrXrXrXrXrXrXrXrXrX",
"rXrXrXrXrXrXrXrXrXrXrXrXrXrXrXrXrXrXrXrXrXrXrXrXrXrXrXrXrXrXrXrXrXrXrXrXrXrXrXrXrXrXrXrXrXrXrXrXrXrX",
"rXrXrXrXrXrXrXrXrXrXrXrXrXrXrXrXrXrXrXrXrXrXrXrXrXrXrXrXrXrXrXrXrXrXrXrXrXrXrXrXrXrXrXrXrXrXrXrXrXrX",
"rXrXrXrXrXrXrXrXrXrXrXrXrXrXrXrXrXrXrXrXrXrXrXrXrXrXrXrXrXrXrXrXrXrXrXrXrXrXrXrXrXrXrXrXrXrXrXrXrXrX",
"rXrXrXrXrXrXrXrXrXrXrXrXrXrXrXrXrXrXrXrXrXrXrXrXrXrXrXrXrXrXrXrXrXrXrXrXrXrXrXrXrXrXrXrXrXrXrXrXrXrX",
"rXrXrXrXrXrXrXrXrXrXrXrXrXrXrXrXrXrXrXrXrXrXrXrXrXrXrXrXrXrXrXrXrXrXrXrXrXrXrXrXrXrXrXrXrXrXrXrXrXrX",
"rXrXrXrXrXrXrXrXrXrXrXrXrXrXrXrXrXrXrXrXrXrXrXrXrXrXrXrXrXrXrXrXrXrXrXrXrXrXrXrXrXrXrXrXrXrXrXrXrXrX",
"rXrXrXrXrXrXrXrXrXrXrXrXrXrXrXrXrXrXrXrXrXrXrXrXrXrXrXrXrXrXrXrXrXrXrXrXrXrXrXrXrXrXrXrXrXrXrXrXrXrX",
"rXrXrXrXrXrXrXrXrXrXrXrXrXrXrXrXrXrXrXrXrXrXrXrXrXrXrXrXrXrXrXrXrXrXrXrXrXrXrXrXrXrXrXrXrXrXrXrXrXrX"
};
